<?xml version="1.0" standalone="no"?>
<!DOCTYPE svg PUBLIC "-//W3C//DTD SVG 20010904//EN"
 "http://www.w3.org/TR/2001/REC-SVG-20010904/DTD/svg10.dtd">
<svg version="1.0" xmlns="http://www.w3.org/2000/svg"
 width="530.000000pt" height="471.000000pt" viewBox="0 0 530.000000 471.000000"
 preserveAspectRatio="xMidYMid meet">

<g transform="translate(0.000000,471.000000) scale(0.100000,-0.100000)"
fill="#000000" stroke="none">
<path d="M2435 4450 c-283 -15 -500 -48 -576 -86 -40 -20 -109 -93 -109 -115
0 -4 -16 -43 -36 -86 -20 -43 -45 -100 -56 -128 -21 -54 -43 -106 -61 -143
-11 -23 -12 -23 -29 19 -10 23 -26 48 -36 55 -31 24 -245 10 -263 -17 -15 -22
-6 -158 11 -169 26 -16 92 -10 165 14 69 24 84 22 85 -10 0 -6 -35 -35 -77
-64 -101 -70 -165 -120 -256 -202 l-30 -27 6 -213 c6 -214 27 -430 48 -497 24
-75 98 -124 216 -140 96 -14 480 -53 688 -71 66 -5 172 -14 236 -20 147 -13
381 -13 528 0 64 6 170 15 236 20 474 41 747 74 801 96 115 48 136 132 150
604 l7 225 -39 35 c-81 72 -122 103 -221 173 -85 60 -102 75 -97 92 4 11 7 21
8 22 1 2 27 -6 57 -17 30 -11 79 -23 110 -26 76 -9 89 5 89 94 0 37 -4 73 -9
81 -10 16 -89 29 -181 30 -67 1 -95 -16 -119 -71 l-17 -40 -26 63 c-121 295
-145 345 -184 388 -73 82 -255 113 -779 135 -49 2 -157 0 -240 -4z m460 -75
c391 -32 470 -51 523 -129 11 -17 41 -92 67 -166 87 -253 88 -259 75 -275 -11
-13 -67 -15 -374 -14 -198 1 -353 3 -343 6 24 6 22 11 -79 169 l-85 134 77
107 c104 144 104 145 18 141 l-68 -3 -53 -74 -53 -74 0 76 0 77 -60 0 -60 0 0
-274 0 -275 23 -4 c12 -2 -163 -5 -390 -6 -388 -1 -413 0 -422 17 -13 24 107
380 147 437 48 68 84 81 292 104 386 44 498 47 765 26z m-305 -136 c0 -64 -4
-98 -10 -94 -6 3 -10 48 -10 101 0 56 4 94 10 94 6 0 10 -40 10 -101z m226 86
c-23 -17 -36 -19 -36 -6 0 5 8 12 18 14 32 9 37 6 18 -8z m-67 -363 c85 -134
96 -159 59 -129 -14 10 -88 121 -88 131 0 2 -18 31 -40 64 -22 33 -40 68 -40
78 0 27 9 14 109 -144z m-160 -45 c1 -63 -3 -96 -9 -92 -6 4 -10 53 -9 118 0
72 3 105 9 92 5 -11 9 -64 9 -118z m85 -39 c27 -43 51 -76 55 -74 3 2 24 0 46
-4 30 -6 12 -8 -70 -9 l-110 -1 3 101 c3 85 5 99 16 83 7 -11 34 -54 60 -96z
m-1344 58 c18 -23 8 -61 -16 -64 -25 -4 -39 31 -23 60 12 22 23 23 39 4z
m2630 -6 c15 -28 3 -60 -21 -60 -15 0 -19 7 -19 33 0 50 20 63 40 27z m-2640
-95 c0 -8 -4 -15 -10 -15 -5 0 -10 7 -10 15 0 8 5 15 10 15 6 0 10 -7 10 -15z
m2635 6 c3 -5 1 -12 -5 -16 -5 -3 -10 1 -10 9 0 18 6 21 15 7z m-2371 -153
c-4 -7 -19 -31 -34 -53 -15 -22 -29 -44 -31 -50 -2 -5 -20 -34 -38 -62 l-34
-53 -58 0 c-32 0 -60 4 -63 9 -5 7 22 32 130 116 21 17 58 47 83 67 51 41 56
44 45 26z m2156 -48 c3 -3 47 -38 98 -79 50 -40 92 -77 92 -82 0 -5 -27 -9
-60 -9 -50 0 -62 3 -75 23 -16 22 -113 169 -130 196 -7 12 57 -31 75 -49z
m-2315 -291 c61 -5 146 -13 190 -16 95 -7 115 -15 115 -48 0 -30 -59 -153 -77
-159 -20 -8 -294 13 -331 25 -42 14 -62 57 -62 133 0 71 7 87 34 81 11 -3 71
-10 131 -16z m2560 10 c13 -20 7 -125 -9 -162 -9 -22 -25 -41 -40 -47 -39 -14
-328 -31 -342 -19 -17 14 -74 136 -74 158 0 22 40 41 86 41 34 0 136 10 289
29 39 5 73 9 77 10 4 0 10 -4 13 -10z m-576 -86 c10 -21 33 -74 51 -118 18
-44 37 -84 41 -90 16 -17 10 -64 -10 -75 -21 -11 -1677 -15 -1718 -4 -49 13
-41 47 74 292 l15 32 764 0 764 0 19 -37z m-1699 -332 c51 -6 87 -15 99 -25
23 -21 74 -151 74 -189 0 -16 -6 -33 -14 -37 -29 -19 -484 21 -507 43 -24 24
-49 156 -43 221 1 9 249 1 391 -13z m2230 -13 c-1 -83 -43 -208 -70 -208 -4 0
-42 -5 -82 -10 -118 -16 -381 -29 -399 -19 -27 14 -30 38 -10 87 11 26 26 65
34 87 23 62 50 72 212 83 77 5 179 10 228 11 l87 1 0 -32z m-1315 -53 c308 0
581 3 608 7 52 8 57 1 36 -46 -15 -32 -24 -34 -360 -47 -209 -8 -361 -8 -565
0 -348 14 -350 15 -363 54 -16 45 -15 47 37 39 26 -4 299 -7 607 -7z m0 -126
c143 0 335 3 428 7 92 4 167 4 167 0 0 -12 -61 -60 -93 -73 -22 -10 -146 -13
-504 -13 -446 0 -476 1 -511 19 -20 10 -48 31 -62 46 l-25 28 170 -7 c94 -4
287 -7 430 -7z"/>
<path d="M1290 3294 c0 -54 20 -101 47 -113 13 -6 46 -11 73 -11 l50 0 0 69
c0 63 -2 69 -22 75 -34 9 -40 7 -32 -6 6 -10 5 -10 -7 -1 -8 7 -24 12 -34 12
-11 0 -32 3 -47 7 -27 6 -28 5 -28 -32z"/>
<path d="M1500 3237 l0 -74 57 -2 c31 -1 61 -3 67 -4 6 -1 21 18 33 42 13 25
27 49 33 55 23 23 8 34 -57 41 -38 3 -83 9 -100 11 l-33 5 0 -74z"/>
<path d="M3870 3323 c-82 -8 -80 -6 -80 -83 l0 -70 59 0 c82 0 101 17 108 98
l6 62 -29 -2 c-16 0 -45 -3 -64 -5z"/>
<path d="M3623 3298 l-73 -10 16 -36 c26 -64 50 -97 67 -96 9 0 40 1 67 2 l50
2 0 75 0 75 -27 -1 c-16 -1 -61 -6 -100 -11z"/>
<path d="M1905 3220 l-16 -30 346 0 345 0 0 30 0 30 -330 0 -329 0 -16 -30z"/>
<path d="M2670 3220 l0 -30 345 0 c324 0 344 1 338 18 -15 42 -12 42 -354 42
l-329 0 0 -30z"/>
<path d="M1856 3090 l-14 -30 369 0 369 0 0 30 0 30 -354 0 -355 0 -15 -30z"/>
<path d="M2670 3090 l0 -30 386 0 385 0 -21 30 -21 30 -365 0 -364 0 0 -30z"/>
<path d="M4550 3410 c-5 -3 -12 -18 -15 -33 l-7 -28 118 1 c74 1 132 -3 154
-11 19 -7 36 -12 38 -10 2 1 12 -7 21 -18 10 -12 26 -21 36 -21 10 0 15 -3 12
-7 -4 -3 4 -21 18 -39 57 -74 55 -39 55 -1038 l0 -921 -29 -60 c-16 -33 -37
-67 -47 -75 -58 -47 -98 -66 -227 -110 -78 -26 -234 -80 -347 -120 -113 -39
-230 -80 -260 -90 -57 -19 -186 -64 -490 -170 -96 -34 -233 -81 -305 -106
-179 -62 -189 -66 -370 -129 -190 -67 -226 -77 -285 -76 -55 0 -71 5 -660 211
-113 40 -230 80 -260 90 -30 10 -127 44 -215 75 -164 58 -365 128 -490 170
-38 13 -155 54 -260 90 -104 36 -215 74 -247 84 -94 30 -149 78 -193 165 l-25
50 0 376 c0 287 -3 379 -12 389 -7 8 -8 11 -2 8 14 -8 12 39 -3 54 -7 7 -9 3
-5 -17 3 -19 1 -25 -7 -20 -8 6 -10 0 -5 -18 5 -20 2 -26 -10 -26 -14 0 -16
-37 -16 -367 0 -355 1 -370 22 -433 18 -52 35 -77 83 -125 55 -54 72 -64 166
-97 152 -53 550 -192 729 -253 85 -30 234 -81 330 -115 205 -72 385 -135 635
-220 99 -33 189 -65 200 -70 103 -43 186 -64 250 -64 73 0 91 6 500 150 72 25
175 61 230 79 55 19 152 53 215 75 63 22 153 54 200 70 47 16 164 56 260 90
96 33 213 74 260 90 47 16 164 57 260 91 96 34 202 70 234 80 119 39 193 106
242 219 18 43 19 82 22 935 3 920 1 979 -37 1054 -44 85 -147 167 -234 187
-37 8 -215 11 -227 4z m-4293 -1416 c-3 -3 -12 -4 -19 -1 -8 3 -5 6 6 6 11 1
17 -2 13 -5z"/>
<path d="M493 3296 c-43 -14 -99 -49 -120 -76 -7 -8 -22 -34 -33 -57 -20 -42
-20 -59 -20 -955 l0 -912 22 -45 c33 -69 79 -108 153 -130 22 -7 54 -19 72
-27 17 -8 34 -14 37 -14 6 0 459 -156 856 -294 52 -19 169 -59 260 -91 91 -31
209 -72 263 -92 55 -19 111 -39 125 -43 15 -5 113 -38 217 -75 260 -92 286
-98 355 -81 30 8 161 51 290 96 237 83 291 101 455 158 50 17 169 58 265 92
96 34 213 74 260 90 47 16 164 57 260 90 96 34 267 93 380 132 113 38 219 78
235 88 51 32 86 83 103 152 17 67 17 1749 0 1816 -20 81 -59 128 -138 165 -37
18 -68 22 -177 25 -81 2 -133 0 -133 -6 0 -17 -80 -100 -127 -131 l-46 -31
211 0 c199 0 213 -1 232 -20 20 -20 20 -31 18 -913 -3 -788 -5 -891 -18 -887
-29 10 -4204 10 -4232 1 -20 -7 -28 -6 -32 6 -3 8 -6 408 -6 889 l0 875 25 24
c24 25 27 25 190 25 163 0 166 0 155 20 -6 11 -13 49 -17 85 l-6 65 -146 -1
c-90 0 -162 -5 -188 -13z m1430 -2057 c34 -11 37 -15 37 -50 0 -28 -8 -47 -29
-71 -28 -32 -29 -37 -30 -137 -1 -126 -20 -202 -55 -220 -42 -23 -125 -10
-187 29 -39 25 -65 33 -93 32 -29 -1 -44 5 -58 20 -19 22 -25 68 -9 68 5 0 21
23 35 50 14 28 35 60 46 73 10 12 28 33 39 46 12 13 21 26 21 29 0 2 -13 20
-30 39 -44 50 -35 96 20 107 45 8 254 -2 293 -15z m900 -32 c345 -1 627 -5
627 -9 0 -5 10 -9 23 -9 20 -1 20 -2 2 -6 -11 -3 -23 -10 -27 -16 -4 -7 -38
-6 -107 1 -148 17 -1138 16 -1143 0 -3 -9 -38 -14 -116 -16 l-112 -4 0 37 0
36 113 -6 c61 -4 394 -8 740 -8z m1462 -22 l0 -30 -115 0 c-237 0 -580 17
-573 29 5 7 2 7 -8 -1 -8 -6 -30 -10 -49 -8 -48 5 -49 6 -20 15 14 4 102 9
195 10 94 1 235 6 315 10 80 4 170 6 200 6 53 -1 54 -2 55 -31z m-1945 -383
c0 -102 4 -152 12 -160 9 -9 7 -12 -10 -12 -22 0 -22 2 -22 160 0 100 4 160
10 160 6 0 10 -56 10 -148z m340 117 c0 -17 -4 -28 -10 -24 -5 3 -10 17 -10
31 0 13 5 24 10 24 6 0 10 -14 10 -31z m306 -14 c33 -36 54 -87 54 -136 0 -44
-12 -87 -25 -92 -9 -4 -10 5 -4 36 8 45 2 110 -14 142 -14 30 -57 65 -86 71
-46 10 -47 12 -2 13 38 1 48 -4 77 -34z m-366 -178 c0 -90 -4 -136 -10 -132
-6 4 -10 66 -10 153 0 99 3 142 10 132 5 -8 10 -77 10 -153z m220 34 c0 -70 4
-111 12 -119 9 -9 7 -12 -9 -12 -29 0 -33 16 -33 147 0 101 2 114 15 103 12
-10 15 -37 15 -119z m-410 -142 c0 -17 -4 -28 -10 -24 -5 3 -10 17 -10 31 0
13 5 24 10 24 6 0 10 -14 10 -31z"/>
<path d="M1717 1243 c18 -2 50 -2 70 0 21 2 7 4 -32 4 -38 0 -55 -2 -38 -4z"/>
<path d="M1730 1093 c-54 -37 -76 -75 -91 -155 -10 -56 -10 -68 5 -97 18 -35
65 -60 127 -68 78 -11 109 38 109 173 l0 86 -39 39 c-43 43 -72 49 -111 22z"/>
<path d="M1530 873 c0 -6 8 -17 18 -24 16 -13 16 -13 2 6 -8 11 -16 22 -17 24
-2 2 -3 0 -3 -6z"/>
<path d="M1335 2564 c10 -92 36 -139 86 -157 14 -4 15 1 8 36 -5 23 -8 56 -8
72 0 29 1 29 15 -10 38 -104 48 -115 109 -115 33 0 33 0 24 32 -5 18 -9 51 -8
73 l1 40 9 -30 c21 -61 51 -115 65 -115 42 0 83 41 84 83 l0 29 108 -7 c59 -3
152 -11 207 -16 55 -5 211 -16 346 -24 217 -13 274 -13 490 0 134 8 289 19
344 24 55 5 148 13 208 16 l107 7 0 -25 c0 -32 33 -73 66 -81 34 -9 39 -3 69
70 l25 59 0 -42 c0 -23 -4 -53 -10 -67 -9 -25 -8 -26 28 -26 51 0 68 14 98 85
l25 60 -5 -68 c-5 -61 -4 -66 12 -58 51 28 82 93 82 174 0 43 -2 48 -17 42
-31 -13 -95 -23 -218 -35 -66 -6 -158 -15 -205 -20 -47 -5 -143 -14 -215 -20
-71 -7 -192 -18 -267 -26 -179 -18 -557 -18 -750 1 -84 8 -207 20 -273 25 -66
6 -158 15 -205 20 -47 5 -137 14 -200 20 -117 11 -190 23 -224 36 -18 7 -18 3
-11 -62z"/>
<path d="M782 2252 c-71 -26 -118 -66 -156 -132 -29 -51 -31 -62 -31 -155 0
-89 3 -106 27 -151 53 -101 131 -147 248 -148 64 0 83 4 127 28 28 16 64 41
78 56 31 32 27 46 -24 94 l-30 29 -40 -32 c-70 -55 -129 -61 -197 -20 -41 25
-66 78 -66 143 -1 61 18 103 64 141 29 24 38 27 93 23 52 -3 69 -9 104 -37
l42 -34 40 39 c21 21 39 43 39 50 0 7 -17 27 -37 44 -80 70 -189 94 -281 62z
m246 -56 c25 -17 48 -37 50 -43 7 -22 -24 -14 -49 13 -29 32 -99 63 -142 65
l-32 2 35 6 c43 8 78 -2 138 -43z m-327 -216 c-3 -73 23 -137 67 -168 16 -12
34 -22 40 -22 5 0 15 -7 22 -15 18 -22 -13 -20 -53 3 -68 37 -97 95 -97 190 0
51 8 87 18 77 3 -3 4 -32 3 -65z m369 -198 c-17 -6 -50 29 -50 52 1 18 5 17
31 -14 16 -19 25 -36 19 -38z"/>
<path d="M3883 2250 c-55 -28 -83 -74 -83 -135 0 -64 30 -114 119 -196 75 -70
87 -100 50 -119 -23 -13 -61 6 -79 40 -15 27 -30 25 -79 -10 l-42 -31 23 -41
c28 -50 59 -75 110 -89 64 -17 117 -3 164 45 30 30 43 52 48 84 12 78 -7 118
-105 218 -49 49 -89 95 -89 101 0 30 62 17 80 -16 15 -29 22 -27 70 20 39 38
41 42 27 62 -23 35 -89 76 -132 82 -30 4 -51 0 -82 -15z m136 -19 c37 -19 82
-71 61 -71 -6 0 -24 14 -40 30 -16 17 -44 33 -61 37 -22 4 -27 8 -17 14 17 11
13 12 57 -10z m-109 -118 c0 -9 38 -56 85 -103 46 -48 89 -99 95 -114 14 -37
12 -97 -4 -118 -11 -15 -12 -9 -8 37 5 67 -10 93 -109 190 -71 69 -91 99 -82
122 7 17 23 6 23 -14z m-6 -309 c40 -40 42 -44 22 -44 -19 0 -66 46 -66 65 0
21 3 20 44 -21z"/>
<path d="M1369 2223 c-15 -39 -189 -536 -189 -540 0 -2 30 -3 67 -1 l66 3 17
49 c11 35 23 52 41 58 25 10 144 7 154 -4 4 -3 14 -28 24 -54 l17 -49 62 -3
c46 -2 62 0 62 10 0 11 -65 201 -165 481 l-28 77 -59 0 c-55 0 -59 -2 -69 -27z
m210 -249 c51 -146 91 -267 88 -270 -13 -13 -26 19 -106 256 -62 180 -91 255
-102 259 -11 3 7 20 22 21 3 0 47 -120 98 -266z m-174 37 c-8 -17 -15 -33 -15
-36 -1 -3 -3 -12 -6 -20 -4 -8 -3 -26 0 -40 5 -21 13 -24 59 -28 l52 -3 -60
-2 c-80 -2 -94 7 -77 50 8 18 23 62 35 98 17 52 22 60 25 38 2 -15 -4 -40 -13
-57z m59 -35 c9 -27 16 -51 16 -53 0 -2 -18 -3 -40 -3 -22 0 -40 3 -40 7 0 21
35 112 41 106 3 -5 14 -30 23 -57z m-154 -231 c-6 -19 -15 -35 -20 -35 -4 0
-1 22 8 50 10 27 18 43 20 35 2 -9 -2 -31 -8 -50z"/>
<path d="M1810 1965 l0 -286 63 3 62 3 5 89 5 89 42 -92 43 -91 65 0 c36 0 65
4 65 9 0 6 -25 61 -55 122 l-56 113 30 23 c91 72 74 234 -31 289 -18 9 -61 14
-133 14 l-105 0 0 -285z m254 244 c14 -11 33 -34 41 -49 19 -37 20 -136 1
-143 -10 -4 -12 4 -8 38 2 24 2 55 -2 69 -9 36 -55 86 -79 86 -12 0 -29 5 -37
10 -11 7 -6 10 21 10 22 0 47 -8 63 -21z m-144 -131 c0 -29 6 -53 16 -62 16
-16 8 -21 -20 -10 -13 5 -16 22 -16 78 0 49 3 66 10 56 5 -8 10 -36 10 -62z
m91 15 c10 -28 -12 -53 -47 -53 -21 0 -24 4 -24 41 0 39 1 40 31 37 22 -2 34
-10 40 -25z m72 -270 c31 -64 55 -118 53 -121 -11 -10 -27 14 -69 101 -51 106
-62 137 -50 137 5 0 35 -53 66 -117z m-163 -14 c0 -71 -4 -108 -10 -104 -6 4
-10 54 -10 116 0 71 4 108 10 104 6 -4 10 -54 10 -116z"/>
<path d="M2506 2218 c4 -18 30 -145 58 -283 l51 -250 60 0 60 0 35 137 c19 75
38 139 41 142 3 3 16 -38 29 -92 12 -53 29 -118 37 -144 l14 -48 58 0 57 0 57
278 c32 152 57 280 57 285 0 4 -27 7 -59 7 -48 0 -61 -3 -65 -17 -2 -10 -15
-67 -27 -128 -12 -60 -25 -114 -29 -118 -4 -4 -22 52 -41 125 l-34 133 -52 3
-52 3 -12 -43 c-6 -24 -24 -90 -38 -147 l-27 -104 -28 139 c-15 76 -30 142
-32 146 -3 4 -32 8 -65 8 l-61 0 8 -32z m140 -148 c37 -174 39 -190 25 -190
-5 0 -13 24 -19 53 -31 165 -55 273 -63 284 -7 7 -5 13 3 16 7 2 15 3 16 1 2
-1 19 -75 38 -164z m250 -7 c48 -184 48 -183 35 -183 -4 0 -14 21 -21 48 -7
26 -18 70 -26 97 -44 161 -56 230 -36 211 2 -3 24 -80 48 -173z m154 -97 c-30
-146 -58 -262 -62 -260 -9 6 -5 46 12 119 5 22 25 119 45 215 40 195 43 206
52 196 3 -3 -18 -125 -47 -270z m-286 -103 c-39 -155 -41 -160 -50 -151 -5 5
59 284 73 318 5 13 7 12 10 -2 3 -10 -12 -84 -33 -165z"/>
<path d="M3380 2225 c-17 -44 -190 -538 -190 -542 0 -1 29 -3 64 -3 l65 0 19
52 c23 61 41 70 142 66 57 -3 65 -5 66 -23 1 -11 9 -37 17 -57 16 -38 16 -38
76 -38 45 0 61 4 61 14 0 11 -105 318 -171 499 l-21 57 -59 0 c-54 0 -60 -2
-69 -25z m209 -248 c50 -142 91 -264 91 -270 0 -30 -30 27 -58 108 -69 203
-132 381 -141 397 -7 12 -7 18 2 21 7 2 13 4 14 3 1 -1 42 -117 92 -259z
m-163 71 c-4 -23 -11 -47 -15 -53 -13 -16 -22 -78 -13 -92 4 -6 30 -14 57 -16
39 -3 35 -4 -15 -3 l-65 1 1 35 c2 32 44 170 53 170 2 0 1 -19 -3 -42z m47
-67 c9 -27 17 -51 17 -55 0 -3 -18 -6 -40 -6 -22 0 -40 3 -40 8 0 14 34 102
40 102 3 0 13 -22 23 -49z m-146 -236 c-6 -19 -16 -35 -23 -35 -9 0 -9 10 3
40 19 48 35 44 20 -5z"/>
<path d="M4245 2237 c-3 -7 -4 -134 -3 -282 l3 -270 63 -3 62 -3 0 116 0 115
70 0 70 0 0 -115 0 -116 63 3 62 3 0 280 0 280 -62 3 -63 3 0 -101 0 -100 -70
0 -70 0 0 100 0 100 -60 0 c-40 0 -62 -4 -65 -13z m117 -104 l3 -108 75 -6 75
-6 -85 1 -85 1 -3 103 c-2 72 -6 102 -15 102 -13 0 12 20 25 20 4 0 9 -48 10
-107z m258 -164 c0 -177 -3 -268 -10 -264 -6 4 -10 105 -10 271 0 169 4 264
10 264 6 0 10 -97 10 -271z m-260 -155 c0 -74 -4 -113 -10 -109 -6 4 -10 55
-10 121 0 74 4 113 10 109 6 -4 10 -55 10 -121z"/>
</g>
</svg>
