<svg width="454" height="373" viewBox="0 0 454 373" fill="none" xmlns="http://www.w3.org/2000/svg">
<path d="M244.5 15.995C244.5 15.995 307 -18.615 339.545 25.13C372.09 68.875 323.425 103.04 366.18 128.78C408.935 154.52 375.915 203.915 414.68 220.325C453.445 236.735 441.935 307.64 396.5 324" stroke="#CCDDE2" stroke-width="5.14" stroke-miterlimit="10"/>
<path d="M66.09 273.785C65.97 274.285 65.87 274.745 65.785 275.24C65.58 276.27 65.39 277.315 65.255 278.375C62.255 300.49 71.965 322.67 85.565 339.645" stroke="#CCDDE2" stroke-width="5.14" stroke-miterlimit="10"/>
<path d="M283.385 20.5664H93.3799C70.0819 20.5664 51.1949 39.4534 51.1949 62.7514V241.626C51.1949 264.924 70.0819 283.811 93.3799 283.811H283.385C306.683 283.811 325.57 264.924 325.57 241.626V62.7514C325.57 39.4534 306.683 20.5664 283.385 20.5664Z" fill="#3FBDF1"/>
<path d="M280.59 16.7212H92.1749C67.3304 16.7212 47.1899 36.8612 47.1899 61.7062V238.826C47.1899 263.671 67.3304 283.811 92.1749 283.811H280.59C305.434 283.811 325.575 263.671 325.575 238.826V61.7062C325.575 36.8612 305.434 16.7212 280.59 16.7212Z" stroke="black" stroke-width="5.14" stroke-miterlimit="10"/>
<path d="M277.99 25.7407H98.775C75.477 25.7407 56.59 44.6272 56.59 67.9257V236.446C56.59 259.744 75.477 278.631 98.775 278.631H277.99C301.288 278.631 320.175 259.744 320.175 236.446V67.9257C320.175 44.6272 301.288 25.7407 277.99 25.7407Z" fill="#3FBDF1"/>
<path d="M289.035 39.0156H233.845C226.345 39.0156 220.25 45.5656 220.25 53.6306V201.066C220.25 209.146 226.345 215.701 233.845 215.701H289.035C296.535 215.701 302.655 209.146 302.655 201.066V53.6306C302.655 45.5656 296.555 39.0156 289.035 39.0156ZM296.23 196.961C296.23 203.701 291.16 209.146 284.89 209.146H238C231.73 209.146 226.66 203.701 226.66 196.961V57.7706C226.66 51.0356 231.73 45.5856 238 45.5856H284.88C291.15 45.5856 296.22 51.0356 296.22 57.7706L296.23 196.961Z" fill="#D7E8F0"/>
<path d="M164.625 225.127L83.74 223.962C82.8695 223.948 82.0405 223.588 81.435 222.963C80.829 222.338 80.4965 221.497 80.51 220.627C80.5095 220.327 80.5535 220.029 80.64 219.742C80.847 219.057 81.271 218.458 81.848 218.035C82.4255 217.612 83.1245 217.388 83.84 217.397L164.725 218.587C164.111 219.523 163.765 220.609 163.725 221.727C163.693 222.923 164.005 224.104 164.625 225.127Z" fill="#3FBDF1"/>
<path d="M184.23 223.007C184.024 223.692 183.601 224.293 183.025 224.718C182.449 225.144 181.751 225.371 181.035 225.367L175.195 225.282C175.82 224.305 176.161 223.173 176.179 222.013C176.196 220.854 175.89 219.712 175.295 218.717L181.135 218.802C182.006 218.817 182.835 219.177 183.441 219.802C184.047 220.427 184.381 221.266 184.37 222.137C184.367 222.432 184.32 222.725 184.23 223.007Z" fill="#D7E8F0"/>
<path d="M184.04 236.032C183.835 236.716 183.413 237.315 182.837 237.738C182.262 238.161 181.564 238.385 180.85 238.377L100.465 237.202C101.357 236.146 101.865 234.818 101.905 233.437C101.943 232.479 101.753 231.526 101.35 230.657L180.94 231.807C181.809 231.824 182.637 232.184 183.242 232.809C183.847 233.433 184.181 234.272 184.17 235.142C184.17 235.443 184.126 235.743 184.04 236.032Z" fill="#D7E8F0"/>
<path d="M90.8001 237.057L83.5551 236.962C82.6861 236.95 81.8571 236.593 81.2506 235.971C80.6441 235.348 80.3096 234.511 80.3201 233.642C80.3216 233.337 80.3671 233.033 80.4551 232.742C80.6576 232.058 81.0786 231.459 81.6541 231.037C82.2291 230.615 82.9271 230.394 83.6401 230.407L90.0951 230.512C89.7231 231.295 89.5121 232.145 89.4751 233.012C89.4196 234.475 89.8896 235.91 90.8001 237.057Z" fill="#3FBDF1"/>
<path d="M158.9 251.221L83.85 250.131C82.9815 250.11 82.1565 249.749 81.552 249.125C80.948 248.501 80.613 247.665 80.62 246.796C80.6235 246.501 80.6705 246.208 80.76 245.927C80.9655 245.241 81.388 244.639 81.964 244.214C82.54 243.788 83.239 243.561 83.955 243.566L158.89 244.671C158.277 245.654 157.951 246.788 157.951 247.946C157.951 249.104 158.277 250.239 158.89 251.221H158.9Z" fill="#3FBDF1"/>
<path d="M184.355 249.207C184.15 249.893 183.726 250.494 183.147 250.916C182.568 251.339 181.867 251.56 181.15 251.547L169.385 251.367L158.885 251.222C158.272 250.239 157.947 249.105 157.947 247.947C157.947 246.789 158.272 245.654 158.885 244.672L169.565 244.832L181.245 244.997C182.113 245.011 182.94 245.368 183.545 245.991C184.15 246.613 184.485 247.449 184.475 248.317C184.481 248.618 184.441 248.918 184.355 249.207Z" fill="#D7E8F0"/>
<path d="M175.195 225.281C174.461 226.432 173.369 227.309 172.087 227.777C170.804 228.245 169.403 228.278 168.101 227.87C166.798 227.463 165.665 226.638 164.878 225.523C164.091 224.408 163.693 223.065 163.745 221.701C163.773 220.884 163.962 220.081 164.3 219.337C164.639 218.594 165.121 217.924 165.718 217.366C166.316 216.809 167.018 216.375 167.783 216.089C168.549 215.804 169.363 215.672 170.18 215.701C170.997 215.728 171.801 215.915 172.546 216.253C173.29 216.591 173.96 217.073 174.518 217.671C175.076 218.269 175.509 218.972 175.794 219.738C176.079 220.504 176.21 221.319 176.18 222.136C176.138 223.254 175.798 224.339 175.195 225.281Z" fill="white"/>
<g opacity="0.72">
<path opacity="0.72" d="M172.85 221.461C172.714 222.209 172.367 222.903 171.85 223.461C171.6 223.744 171.323 224.004 171.025 224.236C170.865 224.351 170.025 225.036 169.845 224.951C168.725 224.386 167.305 222.951 167.13 221.566C167.102 221.348 167.102 221.128 167.13 220.911C167.192 220.531 167.391 220.187 167.688 219.943C167.985 219.698 168.36 219.569 168.745 219.581C168.993 219.592 169.236 219.661 169.454 219.782C169.672 219.902 169.858 220.071 170 220.276C170.219 220.002 170.521 219.808 170.86 219.722C171.199 219.635 171.557 219.662 171.88 219.798C172.203 219.933 172.473 220.171 172.649 220.473C172.824 220.776 172.897 221.128 172.855 221.476L172.85 221.461Z" fill="white"/>
</g>
<path d="M100.465 237.201C99.871 237.912 99.126 238.481 98.284 238.867C97.442 239.254 96.524 239.447 95.598 239.433C94.6715 239.419 93.76 239.198 92.93 238.787C92.1 238.376 91.372 237.784 90.8 237.056C89.886 235.905 89.4155 234.464 89.475 232.996C89.512 232.13 89.7225 231.279 90.095 230.496C90.622 229.414 91.451 228.507 92.482 227.886C93.513 227.265 94.702 226.956 95.905 226.996C97.064 227.031 98.1895 227.393 99.152 228.039C100.114 228.686 100.874 229.591 101.345 230.651C101.748 231.52 101.938 232.473 101.9 233.431C101.862 234.814 101.356 236.143 100.465 237.201Z" fill="white"/>
<g opacity="0.72">
<path opacity="0.72" d="M98.585 232.765C98.4485 233.513 98.102 234.207 97.585 234.765C97.336 235.051 97.0575 235.311 96.755 235.54C96.595 235.655 95.755 236.345 95.58 236.255C94.455 235.69 93.04 234.255 92.865 232.87C92.8375 232.653 92.8375 232.433 92.865 232.215C92.929 231.836 93.1275 231.493 93.424 231.248C93.721 231.004 94.096 230.875 94.48 230.885C94.7285 230.897 94.971 230.966 95.1885 231.086C95.4065 231.207 95.5935 231.376 95.735 231.58C95.954 231.306 96.2565 231.111 96.5965 231.025C96.9365 230.939 97.2955 230.966 97.6185 231.102C97.9415 231.239 98.2115 231.477 98.387 231.781C98.562 232.084 98.6335 232.437 98.59 232.785L98.585 232.765Z" fill="white"/>
</g>
<path d="M169.385 251.366C168.637 252.498 167.541 253.354 166.262 253.806C164.984 254.258 163.593 254.28 162.3 253.87C161.008 253.459 159.885 252.638 159.101 251.531C158.318 250.424 157.917 249.092 157.96 247.736C158.002 246.652 158.322 245.596 158.89 244.671C159.459 243.76 160.254 243.012 161.197 242.498C162.141 241.984 163.201 241.723 164.275 241.739C165.349 241.755 166.401 242.048 167.328 242.59C168.256 243.131 169.028 243.904 169.57 244.831C170.165 245.844 170.456 247.007 170.41 248.181C170.366 249.317 170.012 250.418 169.385 251.366Z" fill="white"/>
<g opacity="0.72">
<path opacity="0.72" d="M167.08 247.506C166.946 248.255 166.599 248.949 166.08 249.506C165.83 249.791 165.552 250.051 165.25 250.281C165.09 250.401 164.25 251.086 164.075 250.996C162.95 250.431 161.535 248.997 161.36 247.612C161.33 247.394 161.33 247.174 161.36 246.957C161.41 246.644 161.552 246.353 161.77 246.122C161.987 245.891 162.268 245.732 162.578 245.664C162.887 245.595 163.21 245.622 163.504 245.741C163.798 245.859 164.049 246.063 164.225 246.326C164.445 246.054 164.748 245.861 165.087 245.776C165.426 245.691 165.783 245.718 166.106 245.853C166.428 245.988 166.698 246.224 166.875 246.526C167.051 246.828 167.125 247.179 167.085 247.526L167.08 247.506Z" fill="white"/>
</g>
<path d="M79.89 54.521L80.03 73.696C80.0645 77.039 81.3905 80.239 83.731 82.6265C86.071 85.014 89.2435 86.404 92.585 86.506L111.585 86.836C113.215 86.857 114.832 86.551 116.341 85.936C117.851 85.3215 119.222 84.41 120.373 83.2565C121.524 82.103 122.433 80.73 123.045 79.2195C123.656 77.7085 123.959 76.0905 123.935 74.461L123.79 55.291C123.76 51.9445 122.437 48.7395 120.096 46.3475C117.755 43.956 114.58 42.563 111.235 42.461L92.235 42.126C90.604 42.1055 88.9855 42.413 87.4755 43.029C85.965 43.6455 84.594 44.5585 83.443 45.7145C82.292 46.87 81.3845 48.245 80.774 49.7575C80.164 51.2705 79.863 52.89 79.89 54.521Z" fill="white"/>
<path d="M82.8101 59.3308L82.9101 73.2108C82.9411 76.1153 84.0936 78.8953 86.1271 80.9698C88.1601 83.0438 90.9166 84.2518 93.8201 84.3408L110.32 84.6258C111.737 84.6468 113.144 84.3828 114.457 83.8503C115.77 83.3178 116.963 82.5273 117.965 81.5253C118.967 80.5233 119.757 79.3303 120.29 78.0173C120.823 76.7043 121.086 75.2973 121.065 73.8808V72.9408C118.75 68.2058 114.24 61.1208 109.43 65.3558C102.495 71.4508 99.3201 66.8108 95.2801 60.8308C91.8751 55.8258 86.7451 52.1708 82.8101 59.3308Z" fill="#3FBDF1"/>
<path d="M113.824 57.4179C115.917 56.0274 116.457 53.1584 115.03 51.0099C113.602 48.8619 110.749 48.2479 108.656 49.6384C106.562 51.0289 106.023 53.8979 107.45 56.0459C108.877 58.1944 111.731 58.8084 113.824 57.4179Z" fill="#3FBDF1"/>
<path d="M185.195 80.3262C182.228 80.3237 179.333 81.2397 176.908 82.9492C174.483 84.6582 172.647 87.0767 171.652 89.8717C170.658 92.6667 170.553 95.7012 171.353 98.5582C172.153 101.415 173.818 103.954 176.12 105.826L143.45 164.426C143.218 164.39 142.984 164.367 142.75 164.356C142.15 164.365 141.554 164.458 140.98 164.631L116.5 134.231C117.583 132.722 118.193 130.924 118.251 129.067C118.309 127.209 117.814 125.377 116.828 123.802C115.842 122.227 114.409 120.981 112.713 120.223C111.017 119.464 109.133 119.228 107.302 119.543C105.471 119.858 103.775 120.711 102.43 121.993C101.085 123.275 100.151 124.928 99.7485 126.742C99.346 128.556 99.4915 130.449 100.167 132.179C100.844 133.91 102.019 135.401 103.545 136.461L86.4 185.261C84.9005 185.349 83.477 185.954 82.373 186.972C81.2685 187.991 80.551 189.36 80.3425 190.848C80.134 192.336 80.447 193.85 81.229 195.133C82.011 196.416 83.213 197.388 84.631 197.885C86.0485 198.382 87.595 198.372 89.0065 197.857C90.4175 197.342 91.6075 196.355 92.3725 195.062C93.138 193.769 93.432 192.251 93.2045 190.766C92.977 189.281 92.2425 187.921 91.125 186.916L108.275 138.116C108.485 138.116 108.69 138.146 108.9 138.146C110.177 138.147 111.441 137.887 112.615 137.381L137.075 167.776C136.542 168.758 136.273 169.861 136.296 170.977C136.319 172.094 136.632 173.185 137.204 174.144C137.777 175.103 138.59 175.896 139.562 176.445C140.534 176.994 141.633 177.281 142.75 177.276C143.963 177.283 145.154 176.946 146.184 176.305C147.214 175.664 148.043 174.745 148.574 173.654C149.104 172.563 149.316 171.344 149.185 170.138C149.053 168.932 148.583 167.787 147.83 166.836L180.5 108.256C182.472 108.939 184.57 109.184 186.647 108.973C188.724 108.762 190.729 108.101 192.525 107.036C194.32 105.971 195.861 104.527 197.041 102.806C198.222 101.084 199.012 99.1257 199.358 97.0667C199.704 95.0082 199.598 92.8992 199.045 90.8862C198.493 88.8732 197.508 87.0047 196.16 85.4112C194.812 83.8177 193.132 82.5372 191.238 81.6592C189.345 80.7807 187.282 80.3262 185.195 80.3262Z" fill="white"/>
<path d="M406.86 244.521C406.825 244.366 406.79 244.216 406.74 244.061C405.124 238.284 401.798 233.13 397.2 229.276C397.145 229.246 397.08 229.191 397.025 229.156C396.6 228.851 396.155 228.556 395.71 228.266C395.11 227.891 394.49 227.531 393.875 227.171C393.822 227.135 393.765 227.107 393.705 227.086C391.324 225.977 389.059 224.638 386.94 223.086L386.835 223.016C383.975 221.116 381.39 218.906 379.605 215.841C379.564 215.777 379.531 215.708 379.505 215.636C379.47 215.636 379.47 215.581 379.455 215.566C377.81 213.066 376.815 210.326 377.02 207.481V207.396C376.52 202.756 377.02 197.871 376.83 193.161C376.83 192.871 376.83 192.581 376.78 192.286C376.73 191.991 376.73 191.636 376.71 191.346C376.728 191.251 376.728 191.152 376.71 191.056C376.642 190.125 376.521 189.199 376.35 188.281C374.725 179.476 369.07 171.631 362.15 166.101C361.993 165.968 361.826 165.848 361.65 165.741C353.89 160.051 345.395 157.841 339.83 156.986C339.778 156.979 339.726 156.979 339.675 156.986C337.585 156.831 335.6 156.866 333.765 156.451C333.73 156.451 333.695 156.451 333.68 156.451C331.626 156.053 329.794 154.906 328.54 153.231C328.065 152.623 327.642 151.975 327.275 151.296C327.223 151.258 327.186 151.203 327.17 151.141C325.729 148.899 324.778 146.377 324.38 143.741C324.33 143.486 324.26 143.241 324.225 142.986C323.025 137.286 322.99 131.086 322.96 125.961C322.495 118.066 318.985 107.891 312.885 100.646C312.885 100.646 312.885 100.611 312.85 100.611C311.081 98.8421 309.089 97.3111 306.925 96.0561C301.451 92.9911 295.167 91.6821 288.925 92.3061C288.925 92.3061 288.925 92.3061 288.89 92.3061C288.88 92.3031 288.869 92.3031 288.86 92.3061C285.02 92.6306 281.299 93.8006 277.965 95.7311C276.739 96.4356 275.579 97.2486 274.5 98.1611C268 103.741 264.275 112.461 263.245 121.061C263.16 121.726 263.11 122.381 263.075 123.061C263.057 123.141 263.057 123.222 263.075 123.301C262.264 124.406 261.783 125.719 261.69 127.086C261.598 128.603 261.963 130.113 262.739 131.42C263.514 132.727 264.664 133.771 266.04 134.416V134.551C266.04 134.996 266.04 135.461 266.04 135.906C266.14 138.949 266.803 141.946 267.995 144.746C269.995 149.471 273.56 154.866 279.605 155.721C280.679 155.875 281.76 155.973 282.845 156.016L285.705 168.246L288.155 178.846C298.84 172.766 312.065 170.931 323.35 174.481H323.385C328.668 176.082 333.467 178.978 337.345 182.906C349.885 193.131 364 241.796 364.845 244.811C364.848 244.847 364.86 244.882 364.88 244.911C364.88 244.911 364.88 244.911 364.88 244.946C364.88 244.981 364.88 244.996 364.915 245.031C364.951 245.174 365.003 245.311 365.07 245.441C365.12 245.596 365.175 245.751 365.24 245.906L365.6 246.831C368.1 253.286 376.17 274.331 377.965 279.526C380.11 285.661 381.785 286.141 381.785 286.141C381.876 286.12 381.964 286.085 382.045 286.036L382.385 285.901C387.8 283.708 392.822 280.648 397.255 276.841C397.29 276.841 397.29 276.841 397.29 276.806C401.393 272.635 404.37 267.489 405.94 261.851C407.671 256.239 407.988 250.286 406.86 244.521Z" fill="white"/>
<path d="M268.705 119.077C268.705 119.077 270.01 97.2166 290.425 92.0766C310.84 86.9366 323.01 110.667 323.925 125.882C324.84 141.097 323.925 151.602 334.655 156.382C334.655 156.382 365.655 156.007 377.065 184.497C377.065 184.497 378.61 198.447 377.98 207.427C377.35 216.407 388.555 224.282 394.66 227.057C400.765 229.832 411.38 241.107 408.495 259.522C405.61 277.937 382.745 286.127 382.745 286.127C382.745 286.127 381.06 285.627 378.92 279.502C376.78 273.377 365.825 244.962 365.825 244.962C365.825 244.962 351.23 193.462 338.275 182.922C331.145 177.112 323.5 174.482 318.465 171.422C313.16 168.197 310.61 164.642 308.84 162.362C305.385 157.917 299.26 151.202 303.69 135.362C308.12 119.522 303.655 127.507 299.485 125.277C299.485 125.277 294.315 117.277 286.515 122.937C278.715 128.597 280.615 114.817 280.615 114.817L277.19 119.427C277.19 119.427 271.82 120.492 268.705 119.077Z" fill="#3FBDF1"/>
<path d="M217.71 148.867C217.93 148.557 218.21 148.232 218.445 147.907C218.68 147.582 218.975 147.272 219.25 146.962C220.144 145.998 221.112 145.106 222.145 144.292C222.47 144.032 222.795 143.792 223.12 143.557L217.71 148.867Z" fill="#3FBDF1"/>
<path d="M63.47 369.461H47.5C45.05 369.461 42.535 369.461 40.275 368.461C38.015 367.461 36.275 365.671 34.62 363.891C23.08 351.711 15.545 342.841 4 330.626L7.87 326.626C9.991 324.839 12.6964 323.897 15.4685 323.98C18.2406 324.063 20.8848 325.165 22.895 327.076L39.25 343.141L63.47 369.461Z" fill="#3FBDF1"/>
<path d="M289.185 304.736C281.241 306.453 273.26 308.086 265.24 309.636C255.783 311.47 246.323 313.263 236.86 315.016L228.035 304.221L213.535 319.261C187.515 323.928 161.445 328.301 135.325 332.381L135.445 332.261L203.73 263.356C208.396 258.643 214.275 255.311 220.715 253.727C227.156 252.143 233.909 252.37 240.23 254.381L267.125 262.961C271.569 278.238 279.075 292.451 289.185 304.736Z" fill="white"/>
<path d="M269.22 209.596C265.845 221.281 265.055 233.716 266.445 246.131C266.779 249.315 267.279 252.481 267.945 255.631C268.56 258.781 269.35 261.881 270.24 264.981C274.278 278.843 280.743 291.878 289.335 303.481C288.995 303.551 288.67 303.636 288.375 303.701C278.68 291.653 271.461 277.808 267.13 262.961C266.27 259.961 265.52 256.961 264.92 253.961C264.32 250.961 263.82 247.866 263.48 244.801C262.145 232.826 262.915 220.836 266.17 209.581C268.562 201.289 272.868 193.675 278.74 187.351C280.205 185.761 281.797 184.293 283.5 182.961L283.585 182.896L283.86 182.691L283.98 182.586C285.587 181.365 287.276 180.256 289.035 179.266C292.879 177.077 297.013 175.444 301.315 174.416C298.411 175.4 295.607 176.657 292.94 178.171C291.114 179.202 289.362 180.358 287.695 181.631L287.575 181.731L287.3 181.936H287.27L287.185 182.001C285.42 183.378 283.769 184.896 282.25 186.541C276.168 193.104 271.705 201 269.22 209.596Z" fill="#2E2E2E"/>
<path d="M323.805 266.121C323.805 266.121 337.715 283.796 349.305 304.901C335.465 299.301 307.405 301.401 296.155 302.571C294.661 302.643 293.173 302.81 291.7 303.071C291.607 303.073 291.515 303.085 291.425 303.106C291.392 303.109 291.358 303.109 291.325 303.106C290.605 303.246 289.935 303.366 289.325 303.501C280.733 291.898 274.268 278.863 270.23 265.001C269.34 261.901 268.55 258.801 267.935 255.651C267.32 252.501 266.785 249.326 266.435 246.151C265.045 233.736 265.835 221.301 269.21 209.616C271.701 201.018 276.17 193.122 282.26 186.561C283.779 184.916 285.429 183.398 287.195 182.021L287.28 181.956H287.31L287.585 181.751L287.705 181.651C289.371 180.378 291.124 179.222 292.95 178.191C295.616 176.677 298.42 175.42 301.325 174.436C308.965 172.586 316.995 172.641 324.24 174.936H324.275C328.54 177.046 333.51 179.511 338.235 183.366C344.9 190.181 348.425 199.366 351.785 208.306C356.425 220.639 361.078 232.959 365.745 245.266C365.747 245.304 365.759 245.34 365.78 245.371C365.78 245.371 365.78 245.371 365.78 245.406C365.78 245.441 365.78 245.456 365.815 245.491C365.851 245.633 365.903 245.771 365.97 245.901C366.018 246.059 366.075 246.215 366.14 246.366C335.28 239.916 323.805 266.121 323.805 266.121Z" fill="#2E2E2E"/>
<path d="M283.5 182.961C281.796 184.287 280.202 185.748 278.735 187.331C272.862 193.655 268.557 201.269 266.165 209.561C262.91 220.816 262.14 232.806 263.475 244.781C263.08 245.001 262.67 245.191 262.26 245.396C253.66 249.591 244.155 252.676 234.495 252.606C229.197 252.548 223.975 251.348 219.183 249.087C214.391 246.826 210.144 243.558 206.73 239.506C201.335 233.116 197.925 225.391 195.405 217.506C192.75 209.181 190.73 200.821 187.44 192.721C185.335 187.561 183.23 181.771 178.69 178.141C176.36 176.291 173.445 175.641 171.135 173.791C168.682 171.819 166.904 169.131 166.05 166.101C165.673 164.796 165.432 163.456 165.33 162.101C164.9 156.756 166.33 151.171 168.085 146.221L159.13 140.191C156.695 138.546 155.63 134.986 157.07 132.431C157.483 131.701 158.048 131.069 158.729 130.579C159.409 130.089 160.187 129.752 161.01 129.591C161.775 129.446 162.561 129.457 163.32 129.625C164.08 129.792 164.798 130.113 165.43 130.566L183.93 143.856C183.93 143.856 185.355 139.251 189.72 140.671C193.8 142.006 208.325 147.711 207.825 165.321C207.756 168.005 208.464 170.651 209.865 172.941L227.235 201.681C228.466 203.715 230.109 205.467 232.06 206.826C234.009 208.185 236.223 209.119 238.556 209.57C240.89 210.02 243.292 209.976 245.608 209.441C247.924 208.905 250.101 207.89 252 206.461L282.405 183.786L283.5 182.961Z" fill="white"/>
<path d="M289.19 191.03L268.69 241.73L263.415 244.195L254.625 248.29C261.665 219.495 252.005 206.07 252.005 206.07L277.46 187.07C277.835 187.21 278.21 187.33 278.605 187.465C283.845 189.195 289.19 191.03 289.19 191.03Z" fill="#2E2E2E"/>
<path d="M299.925 301.866C291 304.076 298.195 302.401 289.22 304.336" stroke="black" stroke-width="5.14" stroke-miterlimit="10"/>
<path d="M386.84 300.671C385.88 298.136 384.92 295.601 383.98 293.066L383.875 292.806C373.208 264.473 362.526 236.155 351.83 207.851C348.47 198.926 344.945 189.726 338.28 182.911C324.39 168.731 299.88 170.081 284.035 182.176L283.915 182.276L283.81 182.346C282.007 183.743 280.323 185.287 278.775 186.961C272.902 193.287 268.596 200.903 266.205 209.196C262.11 223.326 261.94 238.621 264.955 253.576C265.55 256.606 266.305 259.601 267.16 262.576C271.608 277.853 279.115 292.066 289.225 304.351C281.275 306.061 273.293 307.695 265.28 309.251C222.116 317.618 178.81 325.188 135.36 331.961C109.22 336.056 81.525 340.461 55.315 343.961L45.315 345.196C44.22 345.334 43.1075 345.226 42.0595 344.88C41.011 344.534 40.053 343.959 39.255 343.196L22.895 327.101C20.8848 325.191 18.2406 324.088 15.4685 324.005C12.6964 323.922 9.991 324.864 7.87 326.651L4 330.651C15.545 342.866 23.08 351.736 34.625 363.951C36.305 365.731 38.035 367.546 40.28 368.521C42.525 369.496 45.055 369.521 47.505 369.521H61.825C73.935 369.521 86.0515 369.521 98.175 369.521L343.64 369.571C353.695 369.571 364.09 369.506 373.31 365.481C377.758 363.515 381.761 360.666 385.075 357.106" stroke="black" stroke-width="5.14" stroke-miterlimit="10"/>
<path d="M304 236.682L389.555 363.742C390.748 365.513 392.358 366.963 394.242 367.967C396.127 368.97 398.229 369.496 400.365 369.497H437.62C439.078 369.497 440.478 368.917 441.509 367.886C442.541 366.855 443.12 365.456 443.12 363.997C443.12 362.538 442.541 361.139 441.509 360.108C440.478 359.076 439.078 358.497 437.62 358.497H420.05C417.212 358.497 414.439 357.65 412.086 356.063C409.733 354.477 407.908 352.223 406.845 349.592L383 290.672" stroke="black" stroke-width="5.14" stroke-miterlimit="10"/>
<path d="M135.355 331.961L135.475 331.841L203.765 262.961C208.431 258.248 214.308 254.913 220.748 253.325C227.188 251.737 233.942 251.957 240.265 253.961L267.155 262.546" stroke="black" stroke-width="5.14" stroke-miterlimit="10"/>
<path d="M387.075 300.757L386.835 300.672" stroke="black" stroke-width="5.14" stroke-miterlimit="10"/>
<path d="M236.995 314.73L228.075 303.82L213.42 318.99" stroke="black" stroke-width="5.14" stroke-miterlimit="10"/>
<path d="M339.53 184.521V184.506" stroke="black" stroke-width="5.14" stroke-miterlimit="10"/>
<path d="M398.7 359.612C400.944 359.528 403.191 359.6 405.425 359.827C407.25 360.012 409.155 360.122 410.88 360.972C412.315 361.682 413.81 363.387 413.735 365.472C413.6 369.542 409.335 369.512 407 369.512" stroke="black" stroke-width="5.14" stroke-miterlimit="10"/>
<path d="M399.595 369.496H406.995H407.1H429.755" stroke="black" stroke-width="5.14" stroke-miterlimit="10"/>
<path d="M263.5 244.386C263.5 244.386 263.45 244.386 263.43 244.421C263.055 244.626 262.675 244.811 262.285 245.001C259.79 246.229 257.233 247.327 254.625 248.291C248.185 250.706 241.385 252.291 234.52 252.211C229.221 252.152 223.998 250.951 219.206 248.69C214.413 246.43 210.165 243.162 206.75 239.111C201.355 232.721 197.95 224.996 195.43 217.111C192.775 208.786 190.755 200.426 187.465 192.326C185.36 187.171 183.25 181.381 178.715 177.746C176.385 175.896 173.47 175.246 171.16 173.396C168.706 171.423 166.927 168.735 166.07 165.706C165.697 164.4 165.457 163.06 165.355 161.706C164.925 156.361 166.355 150.781 168.11 145.831L159.15 139.801C156.72 138.156 155.65 134.596 157.095 132.041C157.507 131.311 158.073 130.679 158.753 130.188C159.433 129.698 160.212 129.361 161.035 129.201C161.799 129.055 162.585 129.067 163.345 129.234C164.105 129.402 164.823 129.722 165.455 130.176L183.955 143.466C183.955 143.466 185.38 138.861 189.745 140.281C193.82 141.616 208.345 147.321 207.85 164.931C207.781 167.614 208.489 170.261 209.89 172.551L227.255 201.296C228.486 203.326 230.129 205.075 232.078 206.431C234.026 207.788 236.237 208.721 238.568 209.171C240.9 209.62 243.299 209.577 245.612 209.043C247.926 208.509 250.102 207.497 252 206.071L277.455 187.071L282.405 183.391L283.605 182.501L283.88 182.296L284 182.196" stroke="black" stroke-width="5.14" stroke-miterlimit="10"/>
<path d="M184 143.422C184 143.422 181.115 150.447 191.065 155.127" stroke="black" stroke-width="5.14" stroke-miterlimit="10"/>
<path d="M166.525 151.116C166.525 151.116 165.525 159.616 176.82 162.791C180.82 163.916 184.06 159.291 181.625 155.931L181.505 155.776" stroke="black" stroke-width="5.14" stroke-miterlimit="10"/>
<path d="M165.33 161.611C165.33 161.611 169.1 168.996 175.33 168.176C180.83 167.451 178.83 162.076 178.83 162.076" stroke="black" stroke-width="5.14" stroke-miterlimit="10"/>
<path d="M168.12 145.785L174.685 150.21" stroke="black" stroke-width="5.14" stroke-miterlimit="10"/>
<path d="M381.5 286.556C394.15 282.616 403.095 274.722 406.905 261.857C410.555 249.527 408.18 235.506 396.65 228.276C390.905 224.711 384.12 221.927 380.555 215.822C375.69 207.472 378.97 197.286 377.29 188.251C375.545 178.871 369.235 170.561 361.67 164.991C356.063 160.884 349.543 158.197 342.67 157.161C337.595 156.396 332.975 157.661 329.505 153.161C324.005 146.056 323.965 134.446 323.92 125.891C323.89 119.321 322.34 112.781 318.96 107.146L318.885 107.021C316.203 102.479 312.42 98.6855 307.885 95.9915C299.385 91.0715 287.46 90.6165 278.885 95.6765C277.661 96.4075 276.504 97.244 275.425 98.1765C267.5 104.961 263.71 116.427 263.895 126.637" stroke="black" stroke-width="5.14" stroke-miterlimit="10"/>
<path d="M280 114.157C279.56 117.157 277.73 119.937 274.5 120.772C270.83 121.702 268.885 125.272 267.855 128.862C266.389 134.126 266.768 139.733 268.93 144.752C270.93 149.472 274.505 154.872 280.545 155.752C291.6 157.327 297.095 152.667 297.095 152.667" stroke="black" stroke-width="5.14" stroke-miterlimit="10"/>
<path d="M289.21 130.222C290.26 130.222 291.11 129.371 291.11 128.322C291.11 127.272 290.26 126.422 289.21 126.422C288.161 126.422 287.31 127.272 287.31 128.322C287.31 129.371 288.161 130.222 289.21 130.222Z" fill="black"/>
<path d="M272.52 128.966C273.569 128.966 274.42 128.116 274.42 127.066C274.42 126.017 273.569 125.166 272.52 125.166C271.471 125.166 270.62 126.017 270.62 127.066C270.62 128.116 271.471 128.966 272.52 128.966Z" fill="black"/>
<path d="M280 114.157C279.576 115.962 279.639 117.849 280.185 119.622C280.271 119.911 280.381 120.192 280.515 120.462C281.83 123.562 284.895 126.027 290.325 125.722C302.145 125.067 306.36 124.297 305.4 129.747C305 131.662 304.426 133.536 303.685 135.347C302.385 138.787 301.48 144.717 302.815 151.157V151.192C304.355 158.727 313.25 170.622 325.56 174.902" stroke="black" stroke-width="5.14" stroke-miterlimit="10"/>
<path d="M281.04 128.782C281.04 128.782 279.04 136.072 279.245 137.147C279.45 138.222 282 137.392 282 137.392" stroke="black" stroke-width="5.14" stroke-miterlimit="10"/>
<path d="M282.415 144.066C286.23 146.126 290.65 144.826 292.38 141.381" stroke="black" stroke-width="5.14" stroke-miterlimit="10"/>
<path d="M298.556 135.885C301.838 132.409 301.612 126.867 298.051 123.506C294.491 120.145 288.945 120.238 285.664 123.714C282.382 127.19 282.609 132.732 286.169 136.093C289.729 139.454 295.275 139.361 298.556 135.885Z" stroke="black" stroke-width="5.14" stroke-miterlimit="10"/>
<path d="M276.417 133.856C279.699 130.38 279.472 124.838 275.912 121.477C272.352 118.116 266.806 118.209 263.525 121.685C260.243 125.161 260.469 130.703 264.03 134.064C267.59 137.425 273.136 137.332 276.417 133.856Z" stroke="black" stroke-width="5.14" stroke-miterlimit="10"/>
<path d="M269.785 121.685C269.97 121.685 270.16 121.685 270.35 121.71C271.974 121.864 273.475 122.642 274.536 123.881C275.598 125.12 276.137 126.722 276.04 128.35C275.952 129.847 275.292 131.252 274.196 132.276C273.101 133.3 271.654 133.863 270.155 133.85C269.965 133.85 269.774 133.84 269.585 133.82C267.961 133.668 266.461 132.89 265.399 131.653C264.337 130.415 263.798 128.813 263.895 127.185C263.982 125.687 264.643 124.281 265.74 123.257C266.836 122.233 268.285 121.67 269.785 121.685ZM269.785 120.4C267.962 120.391 266.204 121.079 264.871 122.322C263.537 123.565 262.728 125.271 262.61 127.09C262.492 129.053 263.142 130.985 264.422 132.477C265.702 133.97 267.512 134.907 269.47 135.09C269.698 135.114 269.926 135.126 270.155 135.125C271.974 135.133 273.727 134.449 275.058 133.211C276.39 131.973 277.201 130.274 277.325 128.46C277.443 126.497 276.793 124.566 275.513 123.073C274.233 121.58 272.423 120.644 270.465 120.46C270.239 120.436 270.012 120.425 269.785 120.425V120.4Z" fill="white"/>
<path d="M283.36 128.991L278.715 128.566" stroke="black" stroke-width="5.14" stroke-miterlimit="10"/>
<path d="M291.92 123.531C292.113 123.532 292.307 123.542 292.5 123.561C294.171 123.723 295.715 124.524 296.808 125.799C297.901 127.073 298.459 128.72 298.365 130.396C298.271 131.938 297.589 133.385 296.46 134.438C295.33 135.492 293.839 136.071 292.295 136.056C292.105 136.056 291.905 136.056 291.715 136.031C290.043 135.87 288.498 135.068 287.405 133.793C286.311 132.517 285.754 130.869 285.85 129.191C285.943 127.65 286.625 126.203 287.755 125.15C288.884 124.096 290.375 123.517 291.92 123.531ZM291.92 122.246C290.052 122.237 288.251 122.942 286.885 124.216C285.519 125.49 284.691 127.237 284.57 129.101C284.445 131.114 285.109 133.095 286.42 134.627C287.732 136.158 289.587 137.119 291.595 137.306C291.827 137.33 292.061 137.342 292.295 137.341C294.163 137.351 295.963 136.646 297.33 135.372C298.696 134.098 299.524 132.35 299.645 130.486C299.769 128.478 299.109 126.5 297.803 124.969C296.497 123.438 294.648 122.475 292.645 122.281C292.412 122.257 292.178 122.246 291.945 122.246H291.92Z" fill="white"/>
<path d="M275.501 132.991C278.316 130.009 278.122 125.255 275.068 122.371C272.014 119.488 267.256 119.568 264.441 122.55C261.626 125.532 261.82 130.287 264.874 133.17C267.928 136.053 272.686 135.973 275.501 132.991Z" fill="#3FBDF1"/>
<path d="M297.672 135.039C300.5 132.043 300.305 127.266 297.237 124.369C294.169 121.473 289.389 121.554 286.561 124.55C283.732 127.546 283.927 132.322 286.995 135.219C290.064 138.115 294.844 138.035 297.672 135.039Z" fill="#3FBDF1"/>
<path d="M289.215 179.442L286.625 168.257L283.815 156.201" stroke="black" stroke-width="5.14" stroke-miterlimit="10"/>
<path d="M454 369.477H10.3701" stroke="black" stroke-width="5.14" stroke-miterlimit="10"/>
</svg>
