<svg width="456" height="318" viewBox="0 0 456 318" fill="none" xmlns="http://www.w3.org/2000/svg">
<path d="M414.888 35.019H324.638C320.043 35.019 316.318 38.744 316.318 43.339V172.394C316.318 176.989 320.043 180.714 324.638 180.714H414.888C419.483 180.714 423.208 176.989 423.208 172.394V43.339C423.208 38.744 419.483 35.019 414.888 35.019Z" stroke="#CCDDE2" stroke-width="4.83" stroke-miterlimit="10"/>
<path d="M410.993 50.0293H329.628C327.33 50.0293 325.468 51.8918 325.468 54.1893V71.4943C325.468 73.7918 327.33 75.6543 329.628 75.6543H410.993C413.29 75.6543 415.153 73.7918 415.153 71.4943V54.1893C415.153 51.8918 413.29 50.0293 410.993 50.0293Z" stroke="#CCDDE2" stroke-width="4.83" stroke-miterlimit="10"/>
<path d="M369.763 60.8234C371.226 60.8234 372.413 59.6369 372.413 58.1734C372.413 56.7099 371.226 55.5234 369.763 55.5234C368.299 55.5234 367.113 56.7099 367.113 58.1734C367.113 59.6369 368.299 60.8234 369.763 60.8234Z" fill="#D7E8F0"/>
<path d="M362.358 70.1648C362.358 68.2008 363.138 66.3173 364.527 64.9288C365.915 63.5398 367.799 62.7598 369.763 62.7598C371.727 62.7598 373.61 63.5398 374.999 64.9288C376.388 66.3173 377.168 68.2008 377.168 70.1648H362.358Z" fill="#D7E8F0"/>
<path d="M370.303 103.119C367.48 103.12 364.72 103.958 362.373 105.527C360.026 107.096 358.198 109.326 357.118 111.935C356.038 114.543 355.756 117.413 356.308 120.182C356.859 122.951 358.219 125.494 360.216 127.49C362.212 129.486 364.756 130.845 367.525 131.395C370.294 131.946 373.164 131.663 375.772 130.582C378.38 129.501 380.609 127.672 382.177 125.324C383.746 122.977 384.583 120.217 384.583 117.394C384.583 115.519 384.213 113.662 383.496 111.93C382.778 110.198 381.726 108.624 380.4 107.298C379.074 105.973 377.5 104.921 375.767 104.204C374.035 103.487 372.178 103.118 370.303 103.119ZM370.303 128.224C369.767 128.198 369.261 127.966 368.891 127.578C368.521 127.189 368.315 126.673 368.315 126.137C368.315 125.6 368.521 125.084 368.891 124.695C369.261 124.307 369.767 124.075 370.303 124.049C370.839 124.075 371.344 124.307 371.714 124.695C372.084 125.084 372.291 125.6 372.291 126.137C372.291 126.673 372.084 127.189 371.714 127.578C371.344 127.966 370.839 128.198 370.303 128.224ZM372.938 112.169C372.498 115.264 372.128 118.514 371.203 121.524C370.983 122.249 369.623 122.249 369.403 121.524C368.751 119.261 368.25 116.958 367.903 114.629C367.618 112.934 366.628 110.189 367.573 108.544C368.408 107.044 370.758 106.894 372.123 107.664C373.798 108.609 373.138 110.629 372.938 112.169Z" fill="#D7E8F0"/>
<path d="M214.108 63.9448C209.103 62.4523 203.768 62.4778 198.777 64.0173C193.787 65.5573 189.365 68.5423 186.071 72.5953C182.777 76.6483 180.759 81.5868 180.273 86.7868C179.786 91.9863 180.851 97.2138 183.336 101.808C185.82 106.402 189.61 110.156 194.228 112.596C198.846 115.035 204.083 116.051 209.278 115.514C214.473 114.976 219.392 112.911 223.413 109.578C227.434 106.245 230.376 101.795 231.868 96.7898C232.859 93.4668 233.185 89.9813 232.829 86.5323C232.473 83.0833 231.44 79.7383 229.791 76.6883C228.142 73.6383 225.908 70.9433 223.217 68.7568C220.526 66.5698 217.431 64.9348 214.108 63.9448ZM200.843 108.445C199.889 108.13 199.096 107.456 198.631 106.565C198.166 105.675 198.067 104.639 198.354 103.676C198.641 102.714 199.291 101.901 200.168 101.411C201.044 100.92 202.077 100.791 203.048 101.05C203.547 101.183 204.014 101.415 204.421 101.731C204.829 102.048 205.169 102.444 205.421 102.894C205.673 103.345 205.833 103.842 205.889 104.355C205.946 104.868 205.899 105.387 205.752 105.882C205.604 106.377 205.359 106.837 205.03 107.236C204.702 107.634 204.297 107.962 203.839 108.201C203.381 108.44 202.88 108.585 202.366 108.627C201.851 108.668 201.333 108.607 200.843 108.445ZM213.993 81.3748C211.578 86.6298 209.198 92.1948 205.993 97.0398C205.223 98.2098 202.808 97.4898 202.803 96.0898C202.844 91.7388 203.178 87.3958 203.803 83.0898C204.193 79.9448 203.888 74.5548 206.433 72.1348C208.693 69.9698 212.933 70.8998 214.958 72.9798C217.393 75.5198 215.163 78.7548 213.993 81.3748Z" fill="#3FBDF1"/>
<path d="M140.358 122.408C138.527 124.271 137.289 126.636 136.802 129.202C136.315 131.769 136.599 134.422 137.62 136.827C138.641 139.232 140.351 141.28 142.536 142.713C144.721 144.145 147.281 144.899 149.893 144.876C152.506 144.854 155.053 144.057 157.213 142.587C159.372 141.117 161.048 139.04 162.027 136.618C163.006 134.196 163.245 131.538 162.714 128.98C162.183 126.422 160.905 124.08 159.043 122.248C156.543 119.792 153.171 118.429 149.667 118.459C146.163 118.489 142.815 119.909 140.358 122.408ZM156.928 138.693C156.75 138.874 156.539 139.018 156.305 139.117C156.072 139.217 155.821 139.268 155.568 139.271C155.314 139.273 155.063 139.225 154.828 139.13C154.593 139.036 154.379 138.895 154.198 138.718C154.017 138.54 153.873 138.329 153.774 138.095C153.674 137.862 153.622 137.611 153.62 137.358C153.618 137.104 153.665 136.853 153.76 136.618C153.855 136.383 153.995 136.169 154.173 135.988C154.531 135.623 155.021 135.415 155.533 135.41C156.045 135.406 156.537 135.604 156.903 135.963C157.268 136.321 157.476 136.811 157.481 137.323C157.485 137.835 157.286 138.327 156.928 138.693ZM148.043 126.548C149.798 128.848 151.703 131.203 153.088 133.763C153.423 134.378 152.543 135.263 151.923 134.953C150.013 133.91 148.176 132.741 146.423 131.453C145.118 130.548 142.668 129.418 142.193 127.723C141.763 126.223 143.193 124.553 144.563 124.158C146.248 123.668 147.153 125.413 148.043 126.548Z" fill="#3FBDF1"/>
<path d="M334.438 87.0938H404.172" stroke="#CCDDE2" stroke-width="4.83" stroke-miterlimit="10"/>
<path d="M334.438 93.9585H404.172" stroke="#CCDDE2" stroke-width="4.83" stroke-miterlimit="10"/>
<path d="M334.438 138.158H404.172" stroke="#CCDDE2" stroke-width="4.83" stroke-miterlimit="10"/>
<path d="M350.633 144.654H387.973" stroke="#CCDDE2" stroke-width="4.83" stroke-miterlimit="10"/>
<path d="M423.213 129.148C429.363 136.878 435.213 146.458 440.503 158.263C472.713 230.193 432.453 266.698 432.453 266.698" stroke="#9F9F9F" stroke-width="4.83" stroke-miterlimit="10"/>
<path d="M86.7877 186.185C86.7877 186.185 38.9927 131.97 98.5927 105.125C158.193 78.2797 169.993 74.5497 165.693 46.6247C161.393 18.6997 195.193 -9.73528 248.348 9.05473C301.503 27.8447 302.568 63.2547 298.798 90.6297C296.658 106.235 305.513 109.985 316.298 109.2" stroke="#9F9F9F" stroke-width="4.83" stroke-miterlimit="10"/>
<path d="M419.843 290.094C419.721 293.087 418.947 296.017 417.573 298.679C417.519 298.812 417.455 298.94 417.383 299.064C414.973 303.394 411.601 307.113 407.528 309.934L407.383 310.034C403.706 312.494 399.57 314.186 395.223 315.009H441.493C441.493 315.009 435.303 226.734 378.413 183.784C323.358 142.224 271.813 162.254 268.543 163.594C269.556 166.454 270.009 169.483 269.878 172.514C269.878 172.514 274.018 174.669 274.708 182.384C275.398 190.099 276.838 211.549 262.993 215.589C262.993 215.589 250.563 215.284 247.278 210.514C243.993 205.744 243.203 206.714 241.913 207.924C240.913 208.839 234.878 212.109 232.093 213.609C232.445 213.626 232.794 213.675 233.138 213.754C233.138 213.754 234.733 227.214 254.248 248.309C254.909 249.006 255.533 249.737 256.118 250.499C259.064 253.076 262.376 255.706 266.053 258.389L288.323 274.684C288.825 275.112 289.421 275.415 290.063 275.569C291.309 275.883 292.611 275.895 293.863 275.604C296.453 275.104 314.138 273.299 325.583 272.159C325.843 272.159 326.118 272.109 326.373 272.079L327.873 271.934C328.113 271.934 328.373 271.884 328.583 271.869L329.933 271.739C330.593 271.674 331.188 271.609 331.738 271.564L333.238 271.419C334.563 271.289 335.348 271.209 335.413 271.209C338.139 271.132 340.857 270.868 343.548 270.419C346.123 269.919 348.473 269.114 349.083 267.779C349.198 267.498 349.241 267.191 349.208 266.889C349.07 266.04 348.715 265.241 348.178 264.569C345.828 261.414 340.368 258.709 339.968 258.514C339.956 258.51 339.944 258.51 339.933 258.514L339.823 258.434L307.323 233.184H307.288C307.288 233.184 312.183 180.964 356.788 193.814C356.788 193.814 356.998 193.959 357.383 194.279C359.123 195.619 364.598 200.059 372.648 208.354C372.858 208.579 373.083 208.804 373.308 209.044C374.163 209.914 375.003 210.819 375.838 211.704C381.488 217.744 388.173 225.439 395.548 235.034L395.598 235.084C404.048 246.084 410.138 256.164 414.098 265.084V265.114C418.383 274.809 420.188 283.114 419.833 289.739C419.844 289.857 419.847 289.976 419.843 290.094ZM285.308 200.339C283.988 185.124 291.393 179.614 291.808 179.309C281.278 198.359 300.808 227.559 301.493 228.689C300.933 228.219 286.628 215.549 285.308 200.339Z" fill="#353642"/>
<path d="M257.338 197.354C256.79 197.757 256.219 198.128 255.628 198.464L252.198 192.464C260.108 188.419 262.328 181.289 258.848 177.374C257.875 176.303 256.62 175.527 255.228 175.134C251.728 174.074 249.303 175.634 247.658 177.729C246.315 179.55 245.331 181.61 244.758 183.799L243.088 164.539L242.958 163.039C242.958 163.039 239.318 161.234 229.458 162.844C219.598 164.454 217.783 169.899 213.548 167.484C209.313 165.069 206.913 165.264 206.913 165.264C205.708 169.689 202.483 169.689 202.483 169.689C201.719 169.597 200.968 169.414 200.248 169.144C195.673 164.939 194.433 157.644 194.433 157.644C199.233 157.049 199.603 152.429 199.053 148.644C201.713 150.224 205.463 150.334 210.728 146.954C225.833 137.294 241.323 142.524 246.768 143.329C249.198 143.684 251.858 142.829 254.063 141.829C254.348 142.34 254.744 142.779 255.223 143.114C258.898 145.675 261.93 149.053 264.078 152.984C278.253 179.479 262.713 193.549 257.338 197.354Z" fill="#3FBDF1"/>
<path d="M200.753 315.018H206.453C208.891 315.016 211.228 314.046 212.952 312.322C214.675 310.598 215.645 308.261 215.648 305.823V299.443C215.648 298.862 215.533 298.286 215.31 297.749C215.088 297.211 214.761 296.723 214.35 296.312C213.938 295.901 213.45 295.576 212.913 295.354C212.375 295.131 211.799 295.018 211.218 295.018H177.128C177.129 296.376 176.862 297.721 176.343 298.976C175.824 300.231 175.062 301.371 174.102 302.331C173.141 303.291 172.001 304.052 170.746 304.571C169.491 305.089 168.146 305.355 166.788 305.353H43.6025C43.604 307.916 44.6225 310.374 46.435 312.186C48.247 313.998 50.7045 315.017 53.2675 315.018H220.268C220.486 315.019 220.702 314.976 220.904 314.893C221.105 314.81 221.289 314.688 221.443 314.533C221.597 314.379 221.72 314.196 221.803 313.994C221.886 313.793 221.928 313.576 221.928 313.358V303.003C221.928 300.991 222.727 299.062 224.149 297.64C225.572 296.217 227.501 295.418 229.513 295.418C231.524 295.418 233.454 296.217 234.876 297.64C236.299 299.062 237.098 300.991 237.098 303.003V313.358C237.097 313.576 237.139 313.792 237.222 313.993C237.305 314.194 237.427 314.377 237.581 314.532C237.734 314.686 237.917 314.808 238.118 314.892C238.319 314.975 238.535 315.018 238.753 315.018H441.493C441.493 315.018 435.303 226.723 378.413 183.778C323.358 142.218 271.813 162.248 268.543 163.588L268.383 163.648" stroke="black" stroke-width="4.83" stroke-miterlimit="10"/>
<path d="M211.538 185.199C211.536 185.754 211.369 186.296 211.06 186.757C210.75 187.217 210.311 187.576 209.797 187.787C209.284 187.999 208.72 188.053 208.175 187.944C207.631 187.835 207.131 187.567 206.739 187.174C206.347 186.781 206.08 186.281 205.972 185.736C205.863 185.192 205.919 184.628 206.131 184.115C206.343 183.602 206.703 183.163 207.164 182.854C207.625 182.545 208.168 182.38 208.723 182.379C208.94 182.38 209.157 182.407 209.368 182.459C209.077 182.551 208.823 182.733 208.643 182.98C208.463 183.226 208.366 183.524 208.368 183.829C208.366 184.02 208.403 184.21 208.475 184.388C208.547 184.565 208.654 184.726 208.789 184.862C208.923 184.998 209.084 185.107 209.26 185.181C209.437 185.255 209.626 185.293 209.818 185.294C210.168 185.287 210.505 185.158 210.769 184.928C211.034 184.699 211.211 184.384 211.268 184.039C211.44 184.402 211.532 184.797 211.538 185.199Z" fill="black"/>
<path d="M231.043 185.983C231.044 186.541 230.879 187.087 230.57 187.551C230.261 188.015 229.821 188.378 229.305 188.592C228.79 188.806 228.223 188.863 227.676 188.754C227.128 188.646 226.625 188.378 226.23 187.984C225.836 187.59 225.567 187.087 225.457 186.54C225.348 185.993 225.404 185.426 225.617 184.91C225.83 184.394 226.192 183.954 226.656 183.644C227.119 183.333 227.665 183.168 228.223 183.168C228.357 183.167 228.492 183.182 228.623 183.213C228.373 183.328 228.162 183.512 228.014 183.743C227.866 183.974 227.787 184.243 227.788 184.518C227.771 184.903 227.907 185.278 228.166 185.562C228.426 185.846 228.788 186.016 229.173 186.033C229.557 186.05 229.933 185.914 230.217 185.654C230.501 185.394 230.671 185.033 230.688 184.648C230.919 185.055 231.041 185.515 231.043 185.983Z" fill="black"/>
<path d="M253.538 137.869C253.213 140.059 253.617 141.979 255.227 143.119C258.903 145.68 261.934 149.058 264.082 152.989C280.992 184.584 255.628 198.489 255.628 198.489L252.197 192.489C262.072 187.449 263.082 177.579 255.227 175.159C247.372 172.739 244.758 183.824 244.758 183.824L242.957 163.049C242.957 163.049 239.317 161.244 229.457 162.854C219.597 164.464 217.782 169.909 213.547 167.494C209.312 165.079 206.912 165.274 206.912 165.274C205.707 169.699 202.482 169.699 202.482 169.699C193.032 168.494 190.812 155.419 190.812 155.419C195.608 154.819 195.977 150.199 195.432 146.419C198.087 147.999 201.842 148.114 207.107 144.729C222.212 135.069 237.702 140.304 243.142 141.109C246.902 141.654 251.218 139.354 253.538 137.869Z" stroke="black" stroke-width="4.83" stroke-linecap="round" stroke-linejoin="round"/>
<path d="M262.258 294.549L265.993 293.049L268.793 300.604L268.353 314.314L264.568 314.999L250.203 314.379C250.203 314.379 251.203 306.019 254.258 302.044C257.313 298.069 262.258 294.549 262.258 294.549Z" fill="#3FBDF1"/>
<path d="M196.853 174.319C196.853 174.319 200.678 167.454 208.728 168.169" stroke="black" stroke-width="4.83" stroke-miterlimit="10"/>
<path d="M224.493 168.167C224.493 168.167 233.693 166.102 236.913 171.217" stroke="black" stroke-width="4.83" stroke-miterlimit="10"/>
<path d="M238.748 199.249C238.748 199.249 233.248 196.064 229.223 201.419" stroke="black" stroke-width="4.83" stroke-miterlimit="10"/>
<path d="M203.992 169.269C203.992 169.269 200.077 215.324 229.272 214.474C234.272 214.329 239.242 211.044 243.992 205.759" stroke="black" stroke-width="4.83" stroke-miterlimit="10"/>
<path d="M255.628 209.948L243.993 205.758C243.993 205.758 246.878 214.978 261.168 215.683C275.458 216.388 280.253 183.593 269.753 170.398" stroke="black" stroke-width="4.83" stroke-linejoin="round"/>
<path d="M301.118 302.338C301.118 302.338 290.453 310.993 297.698 315.018" stroke="black" stroke-width="4.83" stroke-miterlimit="10"/>
<path d="M292.868 294.283C292.868 294.283 274.368 304.753 290.253 315.018" stroke="black" stroke-width="4.83" stroke-miterlimit="10"/>
<path d="M286.628 286.234C286.628 286.234 262.073 297.734 280.993 315.019" stroke="black" stroke-width="4.83" stroke-miterlimit="10"/>
<path d="M389.888 315.018C389.888 315.018 419.678 315.018 420.078 286.233C420.478 257.448 362.313 185.168 324.673 175.113C287.033 165.058 285.418 192.613 285.418 193.743C285.418 194.873 283.208 206.743 292.868 219.408C300.328 229.198 333.278 253.638 347.898 264.258C348.435 264.649 348.84 265.194 349.06 265.821C349.28 266.447 349.304 267.126 349.128 267.766C348.953 268.407 348.587 268.979 348.079 269.406C347.57 269.833 346.944 270.096 346.283 270.158L281.623 276.368H281.583C280.973 276.478 258.153 280.688 251.203 287.838C251.203 287.838 247.308 290.723 249.323 295.153C251.338 299.583 257.528 298.123 257.698 297.958" stroke="black" stroke-width="4.83" stroke-miterlimit="10"/>
<path opacity="0.26" d="M228.228 191.213C232.674 191.213 236.278 187.609 236.278 183.163C236.278 178.717 232.674 175.113 228.228 175.113C223.782 175.113 220.178 178.717 220.178 183.163C220.178 187.609 223.782 191.213 228.228 191.213Z" fill="white"/>
<path opacity="0.26" d="M207.798 190.418C212.244 190.418 215.848 186.814 215.848 182.368C215.848 177.922 212.244 174.318 207.798 174.318C203.352 174.318 199.748 177.922 199.748 182.368C199.748 186.814 203.352 190.418 207.798 190.418Z" fill="white"/>
<path d="M277.383 293.279C274.553 292.489 269.928 291.779 265.163 293.309C262.833 294.06 260.683 295.284 258.848 296.904C258.448 297.254 258.063 297.609 257.693 297.964C256.895 298.746 256.142 299.572 255.438 300.439C255.345 300.554 255.213 300.63 255.068 300.654C253.293 300.899 241.608 302.749 241.668 308.654C241.723 313.959 247.533 314.829 249.533 314.969C249.615 314.977 249.698 314.967 249.777 314.941C249.855 314.915 249.928 314.873 249.989 314.817C250.051 314.762 250.1 314.694 250.134 314.619C250.169 314.544 250.187 314.462 250.188 314.379C250.188 312.489 250.618 306.564 255.293 300.604" stroke="black" stroke-width="4.83" stroke-miterlimit="10"/>
<path d="M172.103 251.603C173.473 262.648 164.888 267.643 155.503 268.383" stroke="black" stroke-width="4.83" stroke-miterlimit="10"/>
<path d="M141.863 266.079C138.284 264.146 135.386 261.16 133.559 257.526C131.733 253.891 131.068 249.784 131.653 245.759C133.153 235.134 142.153 226.984 150.963 221.814C169.463 210.959 211.153 218.814 218.158 220.414C223.528 221.644 228.018 217.444 229.838 215.414C229.915 215.328 230.015 215.265 230.127 215.235C230.238 215.204 230.356 215.206 230.467 215.24C230.577 215.274 230.676 215.339 230.75 215.428C230.825 215.516 230.873 215.624 230.888 215.739C234.733 238.239 279.388 268.779 289.718 275.614" stroke="black" stroke-width="4.83" stroke-miterlimit="10"/>
<path d="M183.368 243.965L168.583 253.14C167.702 253.688 166.715 254.046 165.688 254.19C164.66 254.334 163.613 254.261 162.615 253.975C161.617 253.69 160.69 253.198 159.894 252.533C159.098 251.867 158.45 251.041 157.993 250.11C157.168 248.436 157.005 246.514 157.535 244.725C158.065 242.936 159.25 241.413 160.853 240.46L183.353 227.055" stroke="black" stroke-width="4.83" stroke-miterlimit="10"/>
<path d="M228.228 191.213C232.674 191.213 236.278 187.609 236.278 183.163C236.278 178.717 232.674 175.113 228.228 175.113C223.782 175.113 220.178 178.717 220.178 183.163C220.178 187.609 223.782 191.213 228.228 191.213Z" stroke="black" stroke-width="4.83" stroke-miterlimit="10"/>
<path d="M207.798 189.213C211.578 189.213 214.643 186.149 214.643 182.368C214.643 178.588 211.578 175.523 207.798 175.523C204.017 175.523 200.953 178.588 200.953 182.368C200.953 186.149 204.017 189.213 207.798 189.213Z" stroke="white" stroke-width="4.83" stroke-miterlimit="10"/>
<path d="M207.798 190.418C212.244 190.418 215.848 186.814 215.848 182.368C215.848 177.922 212.244 174.318 207.798 174.318C203.352 174.318 199.748 177.922 199.748 182.368C199.748 186.814 203.352 190.418 207.798 190.418Z" stroke="black" stroke-width="4.83" stroke-miterlimit="10"/>
<path d="M220.218 182.369H215.848" stroke="black" stroke-width="4.83" stroke-miterlimit="10"/>
<path d="M220.218 193.744H217.338C217.157 193.744 216.978 193.705 216.814 193.628C216.65 193.551 216.505 193.438 216.389 193.299C216.273 193.159 216.19 192.996 216.145 192.821C216.1 192.645 216.094 192.462 216.128 192.284L218.033 182.369" stroke="black" stroke-width="4.83" stroke-miterlimit="10"/>
<path d="M162.433 221.219C162.433 221.219 152.168 223.434 148.548 238.934C146.348 248.344 143.328 260.349 141.298 268.329C141.037 269.352 141.014 270.422 141.23 271.456C141.446 272.49 141.895 273.461 142.543 274.295C143.192 275.129 144.022 275.804 144.97 276.268C145.919 276.732 146.961 276.974 148.018 276.974C149.595 276.974 151.125 276.437 152.356 275.45C153.587 274.464 154.444 273.088 154.788 271.549L159.083 252.279" stroke="black" stroke-width="4.83" stroke-miterlimit="10"/>
<path d="M171.818 257.45C171.818 257.45 182.593 251.01 203.818 257.45C225.043 263.89 249.443 268.26 257.493 251.18" stroke="black" stroke-width="4.83" stroke-miterlimit="10"/>
<path d="M265.167 293.309C265.167 293.309 272.667 301.869 268.107 315.019" stroke="black" stroke-width="4.83" stroke-miterlimit="10"/>
<path d="M17.3327 186.863H135.833C139.65 186.858 143.357 188.138 146.358 190.496C149.359 192.854 151.48 196.154 152.378 199.863L171.243 277.993C171.752 280.101 171.776 282.298 171.313 284.416C170.851 286.535 169.913 288.522 168.572 290.226C167.23 291.93 165.519 293.307 163.568 294.254C161.617 295.201 159.477 295.693 157.308 295.693H39.1127C35.3032 295.697 31.6027 294.421 28.6052 292.07C25.6079 289.719 23.4869 286.429 22.5827 282.728L3.41271 204.613C2.89506 202.503 2.86396 200.302 3.32171 198.178C3.77946 196.054 4.71411 194.062 6.05496 192.352C7.39586 190.642 9.10791 189.26 11.0617 188.309C13.0155 187.358 15.1598 186.864 17.3327 186.863Z" fill="#3FBDF1"/>
<path d="M21.6479 190.225H132.828C136.409 190.229 139.886 191.435 142.7 193.65C145.515 195.865 147.506 198.96 148.353 202.44L166.063 275.735C166.541 277.712 166.564 279.772 166.13 281.76C165.697 283.748 164.818 285.612 163.559 287.21C162.301 288.809 160.696 290.101 158.866 290.99C157.035 291.878 155.027 292.34 152.993 292.34H42.0829C38.5124 292.332 35.0469 291.13 32.2384 288.926C29.4294 286.722 27.4387 283.641 26.5829 280.175L8.5829 206.875C8.09685 204.894 8.06755 202.83 8.49725 200.836C8.9269 198.843 9.80429 196.974 11.063 195.37C12.3217 193.766 13.9287 192.469 15.7625 191.577C17.5964 190.686 19.6089 190.223 21.6479 190.225Z" fill="#3FBDF1"/>
<path d="M17.3327 186.863H135.833C139.65 186.858 143.357 188.138 146.358 190.496C149.359 192.854 151.48 196.154 152.378 199.863L171.243 277.993C171.752 280.101 171.776 282.298 171.313 284.416C170.851 286.535 169.913 288.522 168.572 290.226C167.23 291.93 165.519 293.307 163.568 294.254C161.617 295.201 159.477 295.693 157.308 295.693H39.1127C35.3032 295.697 31.6027 294.421 28.6052 292.07C25.6079 289.719 23.4869 286.429 22.5827 282.728L3.41271 204.613C2.89506 202.503 2.86396 200.302 3.32171 198.178C3.77946 196.054 4.71411 194.062 6.05496 192.352C7.39586 190.642 9.10791 189.26 11.0617 188.309C13.0155 187.358 15.1598 186.864 17.3327 186.863Z" stroke="black" stroke-width="4.83" stroke-miterlimit="10"/>
<path d="M72.8328 238.904L65.7678 205.969C65.6213 205.272 65.2393 204.647 64.6868 204.199C64.1343 203.75 63.4448 203.505 62.7328 203.504H27.7728C27.3025 203.505 26.8387 203.613 26.4164 203.82C25.9941 204.027 25.6244 204.327 25.3354 204.698C25.0463 205.069 24.8455 205.501 24.748 205.961C24.6505 206.421 24.659 206.898 24.7728 207.354L32.9478 240.674C33.0493 241.138 33.2658 241.57 33.5778 241.929C33.8578 242.285 34.2143 242.572 34.6213 242.771C35.0283 242.969 35.4753 243.073 35.9278 243.074H35.9928L69.8278 242.674C70.2848 242.667 70.7343 242.56 71.1448 242.359C71.5553 242.159 71.9168 241.87 72.2028 241.514C72.4943 241.152 72.7018 240.731 72.8108 240.28C72.9198 239.828 72.9273 239.358 72.8328 238.904ZM27.1078 206.764C27.0824 206.665 27.08 206.562 27.1008 206.462C27.1216 206.363 27.1651 206.269 27.2278 206.189C27.2919 206.105 27.3744 206.037 27.4689 205.991C27.5634 205.944 27.6673 205.919 27.7728 205.919H62.7328C62.8903 205.918 63.0433 205.972 63.1653 206.071C63.2878 206.171 63.3713 206.309 63.4028 206.464L68.7828 231.549C50.8178 214.204 48.7828 234.104 48.7828 234.104C38.6428 228.824 35.7128 234.604 34.8628 238.409L27.1078 206.764Z" fill="#D7E8F0"/>
<path d="M37.2026 218.719C39.1526 218.114 40.0776 215.529 39.2776 212.944C38.4776 210.359 36.2426 208.759 34.2776 209.364C32.3126 209.969 31.4026 212.554 32.2076 215.134C33.0126 217.714 35.2576 219.324 37.2026 218.719Z" fill="#D7E8F0"/>
<path d="M45.7628 218.129H57.2328C58.6578 218.129 60.0878 218.129 61.5128 218.129H61.7178C62.1188 218.14 62.5178 218.065 62.8878 217.909C63.1433 217.782 63.3608 217.59 63.5173 217.352C63.6743 217.113 63.7648 216.838 63.7803 216.553C63.7953 216.268 63.7348 215.984 63.6043 215.73C63.4738 215.477 63.2783 215.262 63.0378 215.109C62.7683 214.986 62.5228 214.817 62.3128 214.609C62.1738 214.389 62.0783 214.145 62.0328 213.889C61.7678 213.165 61.2563 212.558 60.5878 212.174C60.1013 211.847 59.5543 211.621 58.9783 211.51C58.4028 211.399 57.8108 211.406 57.2378 211.529C56.6723 211.672 56.1548 211.961 55.7378 212.369C55.3828 212.719 55.3128 213.189 55.0378 213.579C54.8578 213.834 54.7428 213.754 54.4978 213.614C54.2528 213.474 54.1178 213.369 53.9178 213.269C53.5233 213.058 53.1138 212.876 52.6928 212.724C51.8353 212.406 50.9208 212.272 50.0078 212.329C48.4028 212.454 46.8028 213.409 46.2428 214.919C45.7383 214.926 45.2523 215.112 44.8733 215.445C44.4938 215.777 44.2453 216.235 44.1728 216.734C44.1398 216.926 44.1523 217.124 44.2093 217.311C44.2668 217.498 44.3673 217.668 44.5028 217.809C44.8673 218.071 45.3173 218.185 45.7628 218.129Z" fill="#D7E8F0"/>
<path d="M127.993 217.418L127.073 213.633C126.456 211.088 125.001 208.825 122.942 207.207C120.884 205.589 118.341 204.711 115.723 204.713H103.088C101.646 204.711 100.224 205.042 98.9305 205.68C97.638 206.318 96.51 207.246 95.634 208.391C94.7585 209.536 94.159 210.868 93.882 212.283C93.605 213.697 93.6585 215.157 94.0375 216.548L95.0825 220.393C95.75 222.867 97.2145 225.051 99.249 226.609C101.284 228.166 103.775 229.009 106.338 229.008H118.898C120.316 229.007 121.716 228.683 122.992 228.062C124.267 227.441 125.385 226.538 126.261 225.422C127.137 224.306 127.748 223.006 128.048 221.619C128.347 220.233 128.329 218.796 127.993 217.418ZM114.098 218.353L109.783 221.008C109.617 221.113 109.428 221.179 109.232 221.2C109.036 221.22 108.838 221.195 108.654 221.126C108.469 221.058 108.303 220.947 108.168 220.803C108.034 220.659 107.934 220.486 107.878 220.298L106.253 214.988C106.185 214.752 106.185 214.502 106.253 214.266C106.322 214.031 106.456 213.819 106.639 213.657C106.823 213.495 107.05 213.388 107.292 213.349C107.534 213.31 107.782 213.341 108.008 213.438L113.993 216.083C114.207 216.179 114.39 216.332 114.523 216.526C114.656 216.719 114.733 216.945 114.746 217.18C114.759 217.414 114.707 217.647 114.596 217.854C114.485 218.061 114.32 218.234 114.118 218.353H114.098Z" fill="white"/>
<path d="M125.173 251.418H103.068C102.056 251.416 101.066 251.12 100.219 250.566C99.3722 250.013 98.7047 249.224 98.2977 248.298C98.1717 248.013 98.1037 247.705 98.0977 247.393C98.1032 246.79 98.3457 246.213 98.7737 245.788C99.2017 245.363 99.7797 245.124 100.383 245.123H123.883C122.778 246.993 123.338 249.578 125.173 251.418Z" fill="#D7E8F0"/>
<path d="M139.493 249.148C139.491 249.75 139.252 250.326 138.826 250.752C138.401 251.177 137.824 251.417 137.223 251.418H125.173C123.338 249.578 122.778 246.993 123.883 245.123H134.493C135.503 245.123 136.491 245.417 137.338 245.968C138.185 246.519 138.853 247.304 139.263 248.228C139.401 248.516 139.479 248.829 139.493 249.148Z" fill="#3FBDF1"/>
<path d="M133.938 251.418C133.875 251.539 133.803 251.654 133.723 251.763C132.143 253.918 128.723 254.118 126.068 252.178C125.751 251.948 125.451 251.694 125.173 251.418C123.338 249.578 122.778 246.993 123.883 245.123C123.945 245.004 124.017 244.891 124.098 244.783C125.663 242.613 129.098 242.423 131.738 244.348C132.058 244.584 132.36 244.843 132.643 245.123C134.493 246.963 135.028 249.548 133.938 251.418Z" fill="white"/>
<path d="M145.028 263.049C145.022 263.652 144.78 264.229 144.352 264.654C143.924 265.079 143.346 265.318 142.743 265.319H55.1325C56.2525 263.439 55.6925 260.864 53.8525 259.029H140.058C141.069 259.029 142.058 259.323 142.904 259.877C143.751 260.43 144.417 261.218 144.823 262.144C144.952 262.429 145.022 262.737 145.028 263.049Z" fill="#3FBDF1"/>
<path d="M55.1326 265.294H44.2176C43.2071 265.294 42.2186 265.001 41.3716 264.449C40.5251 263.898 39.8566 263.113 39.4476 262.189C39.3191 261.899 39.2511 261.586 39.2476 261.269C39.2471 260.971 39.3051 260.676 39.4191 260.4C39.5331 260.125 39.7001 259.875 39.9111 259.664C40.1221 259.453 40.3726 259.287 40.6486 259.173C40.9241 259.06 41.2196 259.003 41.5176 259.004H53.8526C55.6926 260.839 56.2526 263.414 55.1326 265.294Z" fill="#D7E8F0"/>
<path d="M55.1329 265.294C55.0814 265.417 55.0144 265.533 54.9329 265.639C53.3679 267.809 49.9329 267.994 47.2879 266.069C46.9694 265.833 46.6684 265.574 46.3879 265.294C44.5629 263.454 44.0029 260.884 45.0929 259.004C45.1534 258.882 45.2254 258.767 45.3079 258.659C46.8879 256.504 50.3079 256.304 52.9629 258.239C53.2799 258.469 53.5774 258.725 53.8529 259.004C55.6929 260.839 56.2529 263.414 55.1329 265.294Z" fill="white"/>
<path d="M62.8627 279.049H48.9927C47.9827 279.048 46.9942 278.755 46.1477 278.203C45.3012 277.652 44.6327 276.868 44.2227 275.944C44.0852 275.665 44.0067 275.36 43.9927 275.049C43.9942 274.445 44.2347 273.866 44.6622 273.439C45.0892 273.011 45.6682 272.771 46.2727 272.769H61.5577C60.4927 274.659 61.0377 277.229 62.8627 279.049Z" fill="#3FBDF1"/>
<path d="M149.782 276.815C149.774 277.415 149.529 277.987 149.099 278.406C148.67 278.825 148.092 279.056 147.492 279.05H62.8625C61.0375 277.21 60.4775 274.64 61.5675 272.76H144.812C145.823 272.759 146.813 273.054 147.659 273.607C148.505 274.16 149.172 274.948 149.577 275.875C149.71 276.171 149.779 276.491 149.782 276.815Z" fill="#D7E8F0"/>
<path d="M71.6225 279.049C71.562 279.171 71.49 279.286 71.4075 279.394C69.8425 281.564 66.4075 281.749 63.7675 279.824C63.4475 279.589 63.145 279.33 62.8625 279.049C61.0375 277.209 60.4775 274.639 61.5675 272.759C61.63 272.639 61.702 272.524 61.7825 272.414C63.3625 270.259 66.7825 270.069 69.4375 271.994C69.7555 272.224 70.053 272.48 70.3275 272.759C72.1675 274.614 72.7275 277.199 71.6225 279.049Z" fill="white"/>
<g opacity="0.21">
<path opacity="0.21" d="M74.0427 240.108L66.9927 207.173C66.8467 206.476 66.4652 205.851 65.9122 205.403C65.3597 204.955 64.6692 204.711 63.9577 204.713H28.9927C28.5192 204.713 28.0522 204.821 27.6274 205.03C27.2026 205.239 26.8315 205.543 26.5427 205.918C26.2563 206.285 26.0579 206.713 25.9625 207.169C25.8672 207.625 25.8775 208.097 25.9927 208.548L34.1677 241.873C34.2677 242.337 34.4822 242.769 34.7927 243.128C35.0737 243.483 35.4317 243.771 35.8392 243.968C36.2472 244.166 36.6947 244.268 37.1477 244.268H37.2277L71.0577 243.863C71.5137 243.857 71.9627 243.751 72.3722 243.551C72.7822 243.352 73.1427 243.063 73.4277 242.708C73.7152 242.346 73.9192 241.926 74.0257 241.476C74.1317 241.027 74.1377 240.56 74.0427 240.108ZM28.3127 207.973C28.2872 207.874 28.2852 207.77 28.3072 207.67C28.3287 207.571 28.3737 207.477 28.4377 207.398C28.5002 207.314 28.5817 207.245 28.6757 207.199C28.7692 207.152 28.8727 207.127 28.9777 207.128H63.9377C64.0952 207.127 64.2482 207.18 64.3712 207.278C64.4942 207.376 64.5792 207.514 64.6127 207.668L69.9927 232.753C52.0227 215.403 49.9927 235.308 49.9927 235.308C39.8577 230.028 36.9227 235.808 36.0777 239.613L28.3127 207.973Z" fill="#D7E8F0"/>
<path opacity="0.21" d="M38.4126 219.924C40.3576 219.319 41.2876 216.734 40.4826 214.154C39.6776 211.574 37.4526 209.964 35.4826 210.569C33.5126 211.174 32.6076 213.759 33.4076 216.344C34.2076 218.929 36.4926 220.549 38.4126 219.924Z" fill="#D7E8F0"/>
<path opacity="0.21" d="M46.9927 219.338H58.4577C59.8877 219.338 61.3127 219.338 62.7427 219.338H62.9427C63.3442 219.349 63.7427 219.274 64.1127 219.118C64.3697 218.992 64.5882 218.8 64.7457 218.562C64.9037 218.324 64.9952 218.047 65.0102 217.762C65.0257 217.477 64.9642 217.192 64.8327 216.938C64.7017 216.684 64.5047 216.47 64.2627 216.318C63.9957 216.191 63.7512 216.022 63.5377 215.818C63.4027 215.595 63.3082 215.349 63.2577 215.093C62.9927 214.372 62.4832 213.767 61.8177 213.383C61.3312 213.055 60.7827 212.828 60.2062 212.717C59.6297 212.606 59.0367 212.613 58.4627 212.738C57.9067 212.882 57.3992 213.172 56.9927 213.578C56.6327 213.928 56.5677 214.393 56.2927 214.788C56.1127 215.043 55.9977 214.963 55.7527 214.818C55.5077 214.673 55.3727 214.578 55.1727 214.473C54.7782 214.263 54.3687 214.083 53.9477 213.933C53.0902 213.614 52.1757 213.478 51.2627 213.533C49.6577 213.658 48.0577 214.618 47.4927 216.123C46.9882 216.131 46.5032 216.319 46.1247 216.652C45.7462 216.986 45.4992 217.444 45.4277 217.943C45.3952 218.135 45.4082 218.332 45.4642 218.519C45.5207 218.705 45.6192 218.876 45.7527 219.018C46.1137 219.271 46.5542 219.385 46.9927 219.338Z" fill="#D7E8F0"/>
<path opacity="0.21" d="M129.223 218.623L128.303 214.843C127.685 212.297 126.229 210.034 124.17 208.415C122.111 206.796 119.567 205.917 116.948 205.918H104.293C102.853 205.917 101.432 206.248 100.141 206.885C98.8494 207.522 97.7224 208.448 96.8474 209.592C95.9719 210.735 95.3719 212.065 95.0934 213.477C94.8154 214.89 94.8664 216.348 95.2429 217.738L96.2879 221.588C96.9564 224.062 98.4219 226.247 100.457 227.804C102.493 229.362 104.985 230.205 107.548 230.203H120.108C121.527 230.203 122.927 229.882 124.204 229.262C125.48 228.643 126.6 227.741 127.477 226.626C128.355 225.511 128.968 224.212 129.27 222.825C129.573 221.439 129.557 220.002 129.223 218.623ZM115.323 219.548L110.993 222.218C110.827 222.324 110.639 222.389 110.443 222.41C110.248 222.43 110.05 222.405 109.866 222.336C109.682 222.268 109.516 222.157 109.382 222.013C109.248 221.869 109.149 221.696 109.093 221.508L107.493 216.193C107.426 215.958 107.427 215.708 107.496 215.473C107.565 215.239 107.699 215.028 107.883 214.866C108.066 214.705 108.292 214.598 108.534 214.56C108.775 214.521 109.023 214.552 109.248 214.648L115.188 217.288C115.399 217.385 115.579 217.538 115.71 217.73C115.841 217.922 115.917 218.146 115.931 218.378C115.945 218.609 115.896 218.841 115.788 219.047C115.681 219.253 115.52 219.426 115.323 219.548Z" fill="#D7E8F0"/>
<path opacity="0.21" d="M126.383 252.622H104.278C103.267 252.62 102.278 252.325 101.431 251.772C100.584 251.219 99.9161 250.432 99.5076 249.507C99.3516 249.162 99.2856 248.783 99.3156 248.405C99.3451 248.028 99.4702 247.664 99.6782 247.347C99.8857 247.03 100.17 246.771 100.505 246.594C100.84 246.416 101.214 246.326 101.593 246.332H125.093C123.993 248.197 124.543 250.787 126.383 252.622Z" fill="#D7E8F0"/>
<path opacity="0.21" d="M140.673 250.352C140.673 250.954 140.434 251.53 140.01 251.956C139.585 252.381 139.009 252.621 138.408 252.622H126.383C124.543 250.787 123.983 248.197 125.088 246.332H135.703C136.713 246.332 137.702 246.625 138.549 247.176C139.396 247.727 140.064 248.513 140.473 249.437C140.601 249.726 140.669 250.037 140.673 250.352Z" fill="#3FBDF1"/>
<path opacity="0.21" d="M135.143 252.623C135.084 252.745 135.012 252.861 134.928 252.968C133.348 255.123 129.928 255.323 127.273 253.388C126.957 253.156 126.659 252.9 126.383 252.623C124.543 250.788 123.983 248.198 125.088 246.333C125.15 246.211 125.224 246.096 125.308 245.988C126.873 243.818 130.308 243.633 132.948 245.558C133.268 245.793 133.571 246.052 133.853 246.333C135.678 248.173 136.238 250.743 135.143 252.623Z" fill="white"/>
<path opacity="0.21" d="M146.233 264.232C146.227 264.835 145.984 265.411 145.556 265.835C145.129 266.259 144.55 266.497 143.948 266.497H56.3425C57.4625 264.617 56.9025 262.047 55.0625 260.207H141.263C142.275 260.207 143.265 260.502 144.112 261.057C144.96 261.611 145.627 262.4 146.032 263.327C146.161 263.612 146.229 263.92 146.233 264.232Z" fill="#3FBDF1"/>
<path opacity="0.21" d="M56.3426 266.497H45.4226C44.4131 266.497 43.4251 266.204 42.5786 265.654C41.7321 265.103 41.0631 264.32 40.6526 263.397C40.5271 263.107 40.4591 262.794 40.4526 262.477C40.4526 261.875 40.6916 261.298 41.1176 260.872C41.5431 260.447 42.1206 260.207 42.7226 260.207H55.0626C56.9026 262.047 57.4626 264.617 56.3426 266.497Z" fill="#D7E8F0"/>
<path opacity="0.21" d="M56.3425 266.499C56.291 266.623 56.222 266.739 56.1375 266.844C54.5725 269.014 51.1375 269.204 48.4975 267.279C48.177 267.041 47.8745 266.78 47.5925 266.499C45.7675 264.664 45.2075 262.089 46.3025 260.209C46.3615 260.086 46.4335 259.97 46.5175 259.864C48.0975 257.709 51.5175 257.509 54.1725 259.449C54.487 259.68 54.7845 259.934 55.0625 260.209C56.9025 262.049 57.4625 264.619 56.3425 266.499Z" fill="white"/>
<path opacity="0.21" d="M64.0675 280.272H50.1775C49.168 280.27 48.181 279.977 47.3345 279.427C46.4885 278.877 45.819 278.094 45.4075 277.172C45.282 276.887 45.214 276.579 45.2075 276.267C45.21 275.662 45.4515 275.082 45.8795 274.655C46.3075 274.227 46.8875 273.985 47.4925 273.982H62.7775C61.6825 275.862 62.2425 278.437 64.0675 280.272Z" fill="#3FBDF1"/>
<path opacity="0.21" d="M150.993 278.017C150.992 278.315 150.933 278.609 150.818 278.883C150.704 279.157 150.536 279.406 150.326 279.616C150.115 279.825 149.865 279.991 149.59 280.104C149.315 280.216 149.02 280.274 148.723 280.272H64.0676C62.2426 278.437 61.6826 275.862 62.7776 273.982H146.018C147.03 273.982 148.021 274.277 148.868 274.831C149.715 275.386 150.382 276.175 150.788 277.102C150.918 277.39 150.987 277.702 150.993 278.017Z" fill="#D7E8F0"/>
<path opacity="0.21" d="M72.8326 280.273C72.7701 280.395 72.6966 280.51 72.6126 280.618C71.0476 282.788 67.6126 282.978 64.9726 281.053C64.6521 280.816 64.3496 280.555 64.0676 280.273C62.2426 278.438 61.6826 275.863 62.7776 273.983C62.8366 273.861 62.9086 273.745 62.9926 273.638C64.5726 271.483 67.9926 271.298 70.6476 273.223C70.9621 273.455 71.2596 273.709 71.5376 273.983C73.3776 275.823 73.9376 278.408 72.8326 280.273Z" fill="white"/>
</g>
</svg>
